<svg width="3439" height="1701" xmlns="http://www.w3.org/2000/svg" xmlns:xlink="http://www.w3.org/1999/xlink" overflow="hidden"><defs><clipPath id="clip0"><rect x="0" y="0" width="3439" height="1701"/></clipPath></defs><g clip-path="url(#clip0)"><rect x="0" y="0" width="3439" height="1701.33" fill="#FFFFFF"/><path d="M0 0 432.768 432.066" stroke="#8FAADC" stroke-width="10.6656" stroke-miterlimit="8" stroke-dasharray="42.6625 31.9969" fill="none" fill-rule="evenodd" transform="matrix(1 0 0 -1.00019 516.5 1282.82)"/><path d="M0 0 18.8958 289.496" stroke="#8FAADC" stroke-width="10.6656" stroke-miterlimit="8" stroke-dasharray="42.6625 31.9969" fill="none" fill-rule="evenodd" transform="matrix(-1 0 0 1.00019 969.396 556.608)"/><path d="M1289.25 1046.99 951.5 847.665" stroke="#8FAADC" stroke-width="10.6656" stroke-miterlimit="8" stroke-dasharray="42.6625 31.9969" fill="none" fill-rule="evenodd"/><path d="M0 0 185.782 592.309" stroke="#8FAADC" stroke-width="10.6656" stroke-miterlimit="8" stroke-dasharray="42.6625 31.9969" fill="none" fill-rule="evenodd" transform="matrix(-1 0 0 1.00019 1136.28 253.549)"/><path d="M183.5 851.166C183.5 445.986 527.569 117.523 952 117.523 1376.43 117.523 1720.5 445.986 1720.5 851.166 1720.5 1256.35 1376.43 1584.81 952 1584.81 527.569 1584.81 183.5 1256.35 183.5 851.166Z" stroke="#B4C7E7" stroke-width="10.6656" stroke-miterlimit="8" stroke-dasharray="85.3251 31.9969" fill="none" fill-rule="evenodd"/><path d="M691.5 205.54 951.161 846.567" stroke="#8FAADC" stroke-width="10.6656" stroke-miterlimit="8" stroke-dasharray="42.6625 31.9969" fill="none" fill-rule="evenodd"/><path d="M1211.16 1495.65 951.5 846.665" stroke="#8FAADC" stroke-width="10.6656" stroke-miterlimit="8" stroke-dasharray="42.6625 31.9969" fill="none" fill-rule="evenodd"/><path d="M0 0 645.018 261.021" stroke="#8FAADC" stroke-width="10.6656" stroke-miterlimit="8" stroke-dasharray="42.6625 31.9969" fill="none" fill-rule="evenodd" transform="matrix(1 0 0 -1.00019 306.5 1107.74)"/><path d="M692.758 205.494 1595.86 592.713 1208.92 1495.51 305.82 1108.29Z" stroke="#8FAADC" stroke-width="10.666" stroke-miterlimit="8" fill="none" fill-rule="evenodd"/><path d="M2650 819.41 2669 819.409 2678.5 805.157 2688 819.409 2707 819.41 2697.5 833.662 2707 847.915 2688 847.916 2678.5 862.168 2669 847.916 2650 847.915 2659.5 833.662Z" fill="#FF7C80" fill-rule="evenodd"/><path d="M2552.5 151.529 2767.95 901.573" stroke="#8FAADC" stroke-width="10.6656" stroke-miterlimit="8" stroke-dasharray="42.6625 31.9969" fill="none" fill-rule="evenodd"/><path d="M0 0 446.635 400.392" stroke="#8FAADC" stroke-width="10.6656" stroke-miterlimit="8" stroke-dasharray="42.6625 31.9969" fill="none" fill-rule="evenodd" transform="matrix(-1 0 0 1.00019 3214.14 501.598)"/><path d="M2931.09 1483.46 2767.5 901.676" stroke="#8FAADC" stroke-width="10.6656" stroke-miterlimit="8" stroke-dasharray="42.6625 31.9969" fill="none" fill-rule="evenodd"/><path d="M0 0 545.269 438.911" stroke="#8FAADC" stroke-width="10.6656" stroke-miterlimit="8" stroke-dasharray="42.6625 31.9969" fill="none" fill-rule="evenodd" transform="matrix(1 0 0 -1.00019 2222.5 1340.67)"/><path d="M2552.35 151.529 3214.5 501.217 2931.42 1483.79 2222.5 1340.96 2552.35 151.529Z" stroke="#8FAADC" stroke-width="10.6656" stroke-miterlimit="8" fill="none" fill-rule="evenodd"/><path d="M2739 887.173 2758 887.173 2767.5 873.17 2777 887.173 2796 887.173 2786.5 901.176 2796 915.178 2777 915.179 2767.5 929.181 2758 915.179 2739 915.178 2748.5 901.176Z" fill="#4472C4" fill-rule="evenodd"/><path d="M672.5 206.04C672.5 195.821 681.007 187.537 691.5 187.537 701.993 187.537 710.5 195.821 710.5 206.04 710.5 216.259 701.993 224.544 691.5 224.544 681.007 224.544 672.5 216.259 672.5 206.04Z" stroke="#2F528F" stroke-width="1.3332" stroke-miterlimit="8" fill="#4472C4" fill-rule="evenodd"/><path d="M1192.5 1495.79C1192.5 1485.3 1200.78 1476.79 1211 1476.79 1221.22 1476.79 1229.5 1485.3 1229.5 1495.79 1229.5 1506.29 1221.22 1514.8 1211 1514.8 1200.78 1514.8 1192.5 1506.29 1192.5 1495.79Z" stroke="#2F528F" stroke-width="1.3332" stroke-miterlimit="8" fill="#4472C4" fill-rule="evenodd"/><path d="M290.5 1107.72C290.5 1097.22 299.007 1088.71 309.5 1088.71 319.993 1088.71 328.5 1097.22 328.5 1107.72 328.5 1118.21 319.993 1126.72 309.5 1126.72 299.007 1126.72 290.5 1118.21 290.5 1107.72Z" stroke="#2F528F" stroke-width="1.3332" stroke-miterlimit="8" fill="#4472C4" fill-rule="evenodd"/><path d="M2203.5 1340.76C2203.5 1330.27 2212.01 1321.76 2222.5 1321.76 2232.99 1321.76 2241.5 1330.27 2241.5 1340.76 2241.5 1351.26 2232.99 1359.77 2222.5 1359.77 2212.01 1359.77 2203.5 1351.26 2203.5 1340.76Z" stroke="#2F528F" stroke-width="1.3332" stroke-miterlimit="8" fill="#FF7C80" fill-rule="evenodd"/><path d="M0 0 645.018 254.271" stroke="#8FAADC" stroke-width="10.6656" stroke-miterlimit="8" stroke-dasharray="42.6625 31.9969" fill="none" fill-rule="evenodd" transform="matrix(1 0 0 -1.00019 951.5 846.936)"/><path d="M922 831.412 941 831.412 950.5 817.159 960 831.412 979 831.412 969.5 845.665 979 859.918 960 859.918 950.5 874.17 941 859.918 922 859.918 931.5 845.665Z" fill="#2F5597" fill-rule="evenodd"/><path d="M1577.5 592.616C1577.5 582.12 1586.01 573.612 1596.5 573.612 1606.99 573.612 1615.5 582.12 1615.5 592.616 1615.5 603.111 1606.99 611.619 1596.5 611.619 1586.01 611.619 1577.5 603.111 1577.5 592.616Z" stroke="#2F528F" stroke-width="1.3332" stroke-miterlimit="8" fill="#4472C4" fill-rule="evenodd"/><path d="M2912.5 1483.79C2912.5 1473.29 2921.01 1464.79 2931.5 1464.79 2941.99 1464.79 2950.5 1473.29 2950.5 1483.79 2950.5 1494.28 2941.99 1502.79 2931.5 1502.79 2921.01 1502.79 2912.5 1494.28 2912.5 1483.79Z" stroke="#2F528F" stroke-width="1.3332" stroke-miterlimit="8" fill="#FF7C80" fill-rule="evenodd"/><path d="M3195.5 502.598C3195.5 492.103 3204.01 483.594 3214.5 483.594 3224.99 483.594 3233.5 492.103 3233.5 502.598 3233.5 513.093 3224.99 521.602 3214.5 521.602 3204.01 521.602 3195.5 513.093 3195.5 502.598Z" stroke="#2F528F" stroke-width="1.3332" stroke-miterlimit="8" fill="#FF7C80" fill-rule="evenodd"/><path d="M2533.5 151.53C2533.5 141.034 2542.01 132.526 2552.5 132.526 2562.99 132.526 2571.5 141.034 2571.5 151.53 2571.5 162.025 2562.99 170.533 2552.5 170.533 2542.01 170.533 2533.5 162.025 2533.5 151.53Z" stroke="#2F528F" stroke-width="1.3332" stroke-miterlimit="8" fill="#FF7C80" fill-rule="evenodd"/><path d="M1914 820.16 2027 820.16 2027 790.154 2087 850.166 2027 910.177 2027 880.172 1914 880.172Z" fill="#8FAADC" fill-rule="evenodd"/><path d="M0 0 70.3066 95.3037" stroke="#000000" stroke-width="10.6656" stroke-miterlimit="8" fill="none" fill-rule="evenodd" transform="matrix(-1 0 0 1.00019 2676.81 832.662)"/><path d="M0 0 70.0588 95.3037" stroke="#000000" stroke-width="10.6656" stroke-miterlimit="8" fill="none" fill-rule="evenodd" transform="matrix(-1 0 0 1.00019 2767.56 901.676)"/><path d="M2641.1 927.274 2690.02 963.548 2683.67 972.118 2634.75 935.845ZM2632.68 947.591 2616.5 915.678 2651.73 921.88ZM2692.09 951.802 2708.27 983.714 2673.04 977.512Z"/><path d="M497.5 1283.25C497.5 1273.03 505.783 1264.75 516 1264.75 526.217 1264.75 534.5 1273.03 534.5 1283.25 534.5 1293.47 526.217 1301.75 516 1301.75 505.783 1301.75 497.5 1293.47 497.5 1283.25Z" stroke="#2F528F" stroke-width="1.3332" stroke-miterlimit="8" fill="#4472C4" fill-rule="evenodd"/><path d="M950.5 556.609C950.5 546.113 959.007 537.605 969.5 537.605 979.993 537.605 988.5 546.113 988.5 556.609 988.5 567.104 979.993 575.612 969.5 575.612 959.007 575.612 950.5 567.104 950.5 556.609Z" stroke="#2F528F" stroke-width="1.3332" stroke-miterlimit="8" fill="#4472C4" fill-rule="evenodd"/><path d="M1270.5 1047.7C1270.5 1037.21 1279.01 1028.7 1289.5 1028.7 1299.99 1028.7 1308.5 1037.21 1308.5 1047.7 1308.5 1058.2 1299.99 1066.71 1289.5 1066.71 1279.01 1066.71 1270.5 1058.2 1270.5 1047.7Z" stroke="#2F528F" stroke-width="1.3332" stroke-miterlimit="8" fill="#4472C4" fill-rule="evenodd"/><path d="M1117.5 253.549C1117.5 243.054 1126.01 234.546 1136.5 234.546 1146.99 234.546 1155.5 243.054 1155.5 253.549 1155.5 264.045 1146.99 272.553 1136.5 272.553 1126.01 272.553 1117.5 264.045 1117.5 253.549Z" stroke="#2F528F" stroke-width="1.3332" stroke-miterlimit="8" fill="#4472C4" fill-rule="evenodd"/><path d="M24.6875-60.8125C25.9792-60.8125 27.1146-60.6667 28.0938-60.375 29.0729-60.0833 29.9375-59.6354 30.6875-59.0313 31.4375-58.4271 32.1042-57.6458 32.6875-56.6875 33.2708-55.7292 33.8333-54.4271 34.375-52.7813 34.9167-51.1354 35.4271-49.0938 35.9063-46.6563 36.3854-44.2188 36.8125-41.6875 37.1875-39.0625L37.8125-39.0625C41.8125-44.6875 44.8438-48.8021 46.9063-51.4063 48.9688-54.0104 50.7083-55.9479 52.125-57.2188 53.5417-58.4896 54.9063-59.3854 56.2188-59.9063 57.5313-60.4271 59.2708-60.6875 61.4375-60.6875 63.3958-60.6875 65-60.4375 66.25-59.9375L63.75-48.625 59.375-48.625C59.125-50.375 58.3958-51.25 57.1875-51.25 56.8125-51.25 56.4167-51.1875 56-51.0625 55.5833-50.9375 55.0729-50.6667 54.4688-50.25 53.8646-49.8333 52.9792-49.0208 51.8125-47.8125 50.6458-46.6042 49.3333-45.125 47.875-43.375 46.4167-41.625 44.9167-39.7917 43.375-37.875L39.125-32.5625C39.875-28.5625 40.5833-25.1042 41.25-22.1875 41.9167-19.2708 42.5104-16.8438 43.0313-14.9063 43.5521-12.9688 44.0104-11.4375 44.4063-10.3125 44.8021-9.1875 45.2292-8.34375 45.6875-7.78125 46.1458-7.21875 46.6146-6.82292 47.0938-6.59375 47.5729-6.36458 48.125-6.25 48.75-6.25 49.875-6.25 50.9688-6.6875 52.0313-7.5625 53.0938-8.4375 54.625-10.4167 56.625-13.5L60.6875-10.8125C57.7708-6.47917 55.1354-3.42708 52.7813-1.65625 50.4271 0.114583 47.625 1 44.375 1 42.5833 1 41.0625 0.677084 39.8125 0.0312503 38.5625-0.614583 37.4792-1.64583 36.5625-3.0625 35.6458-4.47917 34.8333-6.6875 34.125-9.6875 32.8333-15.0208 32.0417-19.1042 31.75-21.9375L31.125-21.9375C26.7083-15.7292 23.4271-11.2708 21.2813-8.5625 19.1354-5.85417 17.3646-3.85417 15.9688-2.5625 14.5729-1.27083 13.2188-0.364583 11.9063 0.15625 10.5938 0.677084 8.85417 0.9375 6.6875 0.9375 4.72917 0.9375 3.125 0.6875 1.875 0.1875L4.375-11.125 8.75-11.125C9-9.375 9.72917-8.5 10.9375-8.5 11.5208-8.5 12.1354-8.65625 12.7813-8.96875 13.4271-9.28125 14.3542-10.0313 15.5625-11.2188 16.7708-12.4063 18.4375-14.2708 20.5625-16.8125 22.6875-19.3542 25.7708-23.1667 29.8125-28.25 29.1875-31.5417 28.5417-34.7083 27.875-37.75 27.2083-40.7917 26.5208-43.625 25.8125-46.25 25.1042-48.875 24.5208-50.5938 24.0625-51.4063 23.6042-52.2188 23.1146-52.7813 22.5938-53.0938 22.0729-53.4063 21.4167-53.5625 20.625-53.5625 19.75-53.5625 18.9583-53.3646 18.25-52.9688 17.5417-52.5729 16.7708-51.8854 15.9375-50.9063 15.1042-49.9271 14-48.3958 12.625-46.3125L8.5625-49C11.1875-52.9583 13.7083-55.9167 16.125-57.875 18.5417-59.8333 21.3958-60.8125 24.6875-60.8125Z" fill-rule="evenodd" transform="matrix(1 0 0 1.00019 441.116 109.117)"/><text fill="#000000" fill-opacity="0" font-family="Arial,Arial_MSFontService,sans-serif" font-size="61.8125" x="1.875" y="-6.72656">𝑥</text><path d="M32.0142-41.8682C30.228-41.8682 28.5706-41.4822 27.0418-40.7102 25.5129-39.9382 24.1128-38.8787 22.8413-37.5315 21.5698-36.1843 20.4346-34.6252 19.4355-32.8543 18.4365-31.0833 17.5964-29.1912 16.9153-27.178 16.2341-25.1648 15.7195-23.1062 15.3713-21.0022 15.0232-18.8982 14.8491-16.8472 14.8491-14.8491 14.8491-11.5796 15.3108-9.15015 16.2341-7.56079 17.1575-5.97144 18.6484-5.17676 20.707-5.17676 22.1299-5.17676 23.6814-5.6687 25.3616-6.65259 27.0418-7.63648 28.6765-9.02149 30.2659-10.8076 31.8552-12.5938 33.3008-14.7507 34.6025-17.2786 35.9043-19.8064 36.8882-22.6143 37.5542-25.7022 37.9478-27.3369 38.2808-28.9792 38.5532-30.6292 38.8257-32.2791 38.9619-33.77 38.9619-35.1021 38.9619-37.5542 38.4094-39.2949 37.3044-40.3242 36.1995-41.3535 34.436-41.8682 32.0142-41.8682ZM31.1968-46.3638C33.4976-46.3638 35.5637-46.0837 37.3953-45.5237 39.2268-44.9636 40.9146-44.1992 42.4585-43.2305L46.7725-46.3638 50.4507-45.4102C48.4526-36.4189 46.4773-27.5186 44.5247-18.709 42.572-9.89942 40.7481-1.60449 39.0527 6.17578 38.4775 8.26465 38.1899 9.95996 38.1899 11.2617 38.1899 12.3818 38.6138 13.1765 39.4614 13.6458 40.3091 14.115 41.7622 14.4404 43.8208 14.6221L43.1851 17.6191 27.6094 17.6191C28.8809 12.6543 30.0691 8.04517 31.1741 3.79175 32.2791-0.46167 33.4824-5.0708 34.7842-10.0356L34.0576-10.2173C32.5439-8.24951 31.0681-6.56934 29.6301-5.17676 28.1921-3.78418 26.7844-2.64136 25.407-1.74829 24.0295-0.855225 22.6521-0.204346 21.2747 0.204346 19.8972 0.613037 18.5122 0.817383 17.1196 0.817383 13.5171 0.817383 10.7319-0.476807 8.76416-3.06519 6.79639-5.65356 5.8125-9.41504 5.8125-14.3496 5.8125-17.2861 6.1228-20.1091 6.74341-22.8186 7.36402-25.5281 8.24195-28.071 9.3772-30.4475 10.5125-32.824 11.8672-34.9885 13.4414-36.9412 15.0156-38.8938 16.7412-40.5664 18.6182-41.959 20.4951-43.3516 22.4932-44.4338 24.6123-45.2058 26.7314-45.9778 28.9263-46.3638 31.1968-46.3638Z" fill-rule="evenodd" transform="matrix(1 0 0 1.00019 508.029 135.251)"/><text fill="#000000" fill-opacity="0" font-family="Arial,Arial_MSFontService,sans-serif" font-size="63.9829" x="5.8125" y="9.62128">𝑞</text><path d="M15.1895-39.5527C17.1947-39.5527 18.755-38.901 19.8704-37.5977 20.9858-36.2943 21.5435-34.5522 21.5435-32.3716 21.5435-31.4692 21.4557-30.6672 21.2803-29.9653L21.769-29.7773C24.1502-33.0358 26.5565-35.4797 28.9878-37.1089 31.4191-38.7381 33.9507-39.5527 36.5825-39.5527 42.0968-39.5527 44.854-36.8708 44.854-31.5068L44.854-30.7925C44.854-30.5418 44.8289-30.2912 44.7788-30.0405L45.1548-30.0405C47.536-33.299 49.9172-35.699 52.2983-37.2405 54.6795-38.782 57.186-39.5527 59.8179-39.5527 62.7004-39.5527 64.8309-38.8133 66.2095-37.3345 67.5881-35.8556 68.2774-33.7502 68.2774-31.0181 68.2774-29.5894 67.9264-27.3335 67.2246-24.2505L64.6304-13.5728C64.0539-11.2166 63.7155-9.74406 63.6152-9.15503 63.515-8.566 63.4649-7.98324 63.4649-7.40674 63.4649-5.62712 64.292-4.7373 65.9463-4.7373 66.974-4.7373 68.0079-5.13835 69.0481-5.94043 70.0883-6.74251 71.3604-7.93311 72.8643-9.51221L75.6841-6.76758C73.0523-4.13574 70.7588-2.21826 68.8037-1.01514 66.8486 0.187988 64.8058 0.789551 62.6753 0.789551 60.62 0.789551 58.9406 0.0814616 57.6372-1.33472 56.3338-2.7509 55.6821-4.52425 55.6821-6.65479 55.6821-8.96078 56.1584-11.7806 57.1109-15.1143L58.9531-22.0698C59.8304-25.3283 60.2691-27.9225 60.2691-29.8525 60.2691-32.6849 59.0785-34.1011 56.6973-34.1011 55.1683-34.1011 53.7271-33.6499 52.3735-32.7476 51.02-31.8452 49.6352-30.592 48.219-28.9878 46.8028-27.3836 45.6812-25.7795 44.854-24.1753 44.0269-22.5711 43.4002-20.8291 42.9741-18.9492L38.876 0 30.7925 0 35.9434-22.0322C36.7705-25.5163 37.1841-28.1231 37.1841-29.8525 37.1841-32.6849 35.9308-34.1011 33.4243-34.1011 31.8703-34.1011 30.3726-33.6186 28.9314-32.6536 27.4902-31.6886 26.0677-30.3977 24.6641-28.781 23.2604-27.1643 22.1576-25.5789 21.3555-24.0249 20.5534-22.4709 19.9769-20.779 19.626-18.9492L15.6782 0 7.51953 0 13.3848-25.04C14.0365-27.8473 14.3623-29.9403 14.3623-31.3189 14.3623-33.0985 13.5477-33.9883 11.9185-33.9883 10.8908-33.9883 9.85059-33.5872 8.79785-32.7852 7.74512-31.9831 6.47933-30.805 5.00049-29.251L2.14307-31.958C4.7749-34.5898 7.06836-36.5136 9.02344-37.7293 10.9785-38.9449 13.0339-39.5527 15.1895-39.5527ZM103.13-46.2075 105.612-46.2075C105.562-45.6812 105.512-44.4028 105.461-42.3726 105.411-40.3423 105.386-38.2995 105.386-36.2441L105.386-9.77539C105.386-8.19629 105.524-7.06836 105.8-6.3916 106.076-5.71484 106.514-5.18221 107.116-4.7937 107.717-4.40519 108.745-4.10441 110.199-3.89136 111.653-3.6783 113.959-3.54671 117.117-3.49658L117.117 0 85.9482 0 85.9482-3.49658C89.0062-3.57178 91.2432-3.70964 92.6594-3.91016 94.0756-4.11068 95.1158-4.40519 95.78-4.7937 96.4443-5.18221 96.933-5.71484 97.2464-6.3916 97.5597-7.06836 97.7163-8.19629 97.7163-9.77539L97.7163-34.7026C97.7163-35.605 97.5346-36.2567 97.1712-36.6577 96.8077-37.0588 96.2876-37.2593 95.6108-37.2593 94.8589-37.2593 93.6808-36.852 92.0767-36.0374 90.4725-35.2227 88.4172-34.0259 85.9107-32.4468L83.918-36.2441Z" fill-rule="evenodd" transform="matrix(1 0 0 1.00019 562.657 154.317)"/><text fill="#000000" fill-opacity="0" font-family="Arial,Arial_MSFontService,sans-serif" font-size="46.9971" x="2.14307" y="-5.08508">𝑚1</text><path d="M24.6875-60.8125C25.9792-60.8125 27.1146-60.6667 28.0938-60.375 29.0729-60.0833 29.9375-59.6354 30.6875-59.0313 31.4375-58.4271 32.1042-57.6458 32.6875-56.6875 33.2708-55.7292 33.8333-54.4271 34.375-52.7813 34.9167-51.1354 35.4271-49.0938 35.9063-46.6563 36.3854-44.2188 36.8125-41.6875 37.1875-39.0625L37.8125-39.0625C41.8125-44.6875 44.8438-48.8021 46.9063-51.4063 48.9688-54.0104 50.7083-55.9479 52.125-57.2188 53.5417-58.4896 54.9063-59.3854 56.2188-59.9063 57.5313-60.4271 59.2708-60.6875 61.4375-60.6875 63.3958-60.6875 65-60.4375 66.25-59.9375L63.75-48.625 59.375-48.625C59.125-50.375 58.3958-51.25 57.1875-51.25 56.8125-51.25 56.4167-51.1875 56-51.0625 55.5833-50.9375 55.0729-50.6667 54.4688-50.25 53.8646-49.8333 52.9792-49.0208 51.8125-47.8125 50.6458-46.6042 49.3333-45.125 47.875-43.375 46.4167-41.625 44.9167-39.7917 43.375-37.875L39.125-32.5625C39.875-28.5625 40.5833-25.1042 41.25-22.1875 41.9167-19.2708 42.5104-16.8438 43.0313-14.9063 43.5521-12.9688 44.0104-11.4375 44.4063-10.3125 44.8021-9.1875 45.2292-8.34375 45.6875-7.78125 46.1458-7.21875 46.6146-6.82292 47.0938-6.59375 47.5729-6.36458 48.125-6.25 48.75-6.25 49.875-6.25 50.9688-6.6875 52.0313-7.5625 53.0938-8.4375 54.625-10.4167 56.625-13.5L60.6875-10.8125C57.7708-6.47917 55.1354-3.42708 52.7813-1.65625 50.4271 0.114583 47.625 1 44.375 1 42.5833 1 41.0625 0.677084 39.8125 0.0312503 38.5625-0.614583 37.4792-1.64583 36.5625-3.0625 35.6458-4.47917 34.8333-6.6875 34.125-9.6875 32.8333-15.0208 32.0417-19.1042 31.75-21.9375L31.125-21.9375C26.7083-15.7292 23.4271-11.2708 21.2813-8.5625 19.1354-5.85417 17.3646-3.85417 15.9688-2.5625 14.5729-1.27083 13.2188-0.364583 11.9063 0.15625 10.5938 0.677084 8.85417 0.9375 6.6875 0.9375 4.72917 0.9375 3.125 0.6875 1.875 0.1875L4.375-11.125 8.75-11.125C9-9.375 9.72917-8.5 10.9375-8.5 11.5208-8.5 12.1354-8.65625 12.7813-8.96875 13.4271-9.28125 14.3542-10.0313 15.5625-11.2188 16.7708-12.4063 18.4375-14.2708 20.5625-16.8125 22.6875-19.3542 25.7708-23.1667 29.8125-28.25 29.1875-31.5417 28.5417-34.7083 27.875-37.75 27.2083-40.7917 26.5208-43.625 25.8125-46.25 25.1042-48.875 24.5208-50.5938 24.0625-51.4063 23.6042-52.2188 23.1146-52.7813 22.5938-53.0938 22.0729-53.4063 21.4167-53.5625 20.625-53.5625 19.75-53.5625 18.9583-53.3646 18.25-52.9688 17.5417-52.5729 16.7708-51.8854 15.9375-50.9063 15.1042-49.9271 14-48.3958 12.625-46.3125L8.5625-49C11.1875-52.9583 13.7083-55.9167 16.125-57.875 18.5417-59.8333 21.3958-60.8125 24.6875-60.8125Z" fill-rule="evenodd" transform="matrix(1 0 0 1.00019 1669.29 520.995)"/><text fill="#000000" fill-opacity="0" font-family="Arial,Arial_MSFontService,sans-serif" font-size="61.8125" x="1.875" y="-6.72656">𝑥</text><path d="M32.0142-41.8682C30.228-41.8682 28.5706-41.4822 27.0418-40.7102 25.5129-39.9382 24.1128-38.8787 22.8413-37.5315 21.5698-36.1843 20.4346-34.6252 19.4355-32.8543 18.4365-31.0833 17.5964-29.1912 16.9153-27.178 16.2341-25.1648 15.7195-23.1062 15.3713-21.0022 15.0232-18.8982 14.8491-16.8472 14.8491-14.8491 14.8491-11.5796 15.3108-9.15015 16.2341-7.56079 17.1575-5.97144 18.6484-5.17676 20.707-5.17676 22.1299-5.17676 23.6814-5.6687 25.3616-6.65259 27.0418-7.63648 28.6765-9.02149 30.2659-10.8076 31.8552-12.5938 33.3008-14.7507 34.6025-17.2786 35.9043-19.8064 36.8882-22.6143 37.5542-25.7022 37.9478-27.3369 38.2808-28.9792 38.5532-30.6292 38.8257-32.2791 38.9619-33.77 38.9619-35.1021 38.9619-37.5542 38.4094-39.2949 37.3044-40.3242 36.1995-41.3535 34.436-41.8682 32.0142-41.8682ZM31.1968-46.3638C33.4976-46.3638 35.5637-46.0837 37.3953-45.5237 39.2268-44.9636 40.9146-44.1992 42.4585-43.2305L46.7725-46.3638 50.4507-45.4102C48.4526-36.4189 46.4773-27.5186 44.5247-18.709 42.572-9.89942 40.7481-1.60449 39.0527 6.17578 38.4775 8.26465 38.1899 9.95996 38.1899 11.2617 38.1899 12.3818 38.6138 13.1765 39.4614 13.6458 40.3091 14.115 41.7622 14.4404 43.8208 14.6221L43.1851 17.6191 27.6094 17.6191C28.8809 12.6543 30.0691 8.04517 31.1741 3.79175 32.2791-0.46167 33.4824-5.0708 34.7842-10.0356L34.0576-10.2173C32.5439-8.24951 31.0681-6.56934 29.6301-5.17676 28.1921-3.78418 26.7844-2.64136 25.407-1.74829 24.0295-0.855225 22.6521-0.204346 21.2747 0.204346 19.8972 0.613037 18.5122 0.817383 17.1196 0.817383 13.5171 0.817383 10.7319-0.476807 8.76416-3.06519 6.79639-5.65356 5.8125-9.41504 5.8125-14.3496 5.8125-17.2861 6.1228-20.1091 6.74341-22.8186 7.36402-25.5281 8.24195-28.071 9.3772-30.4475 10.5125-32.824 11.8672-34.9885 13.4414-36.9412 15.0156-38.8938 16.7412-40.5664 18.6182-41.959 20.4951-43.3516 22.4932-44.4338 24.6123-45.2058 26.7314-45.9778 28.9263-46.3638 31.1968-46.3638Z" fill-rule="evenodd" transform="matrix(1 0 0 1.00019 1736.2 547.129)"/><text fill="#000000" fill-opacity="0" font-family="Arial,Arial_MSFontService,sans-serif" font-size="63.9829" x="5.8125" y="9.62128">𝑞</text><path d="M15.1895-39.5527C17.1947-39.5527 18.755-38.901 19.8704-37.5977 20.9858-36.2943 21.5435-34.5522 21.5435-32.3716 21.5435-31.4692 21.4557-30.6672 21.2803-29.9653L21.769-29.7773C24.1502-33.0358 26.5565-35.4797 28.9878-37.1089 31.4191-38.7381 33.9507-39.5527 36.5825-39.5527 42.0968-39.5527 44.854-36.8708 44.854-31.5068L44.854-30.7925C44.854-30.5418 44.8289-30.2912 44.7788-30.0405L45.1548-30.0405C47.536-33.299 49.9172-35.699 52.2984-37.2405 54.6795-38.782 57.186-39.5527 59.8179-39.5527 62.7004-39.5527 64.8309-38.8133 66.2095-37.3345 67.5881-35.8556 68.2774-33.7502 68.2774-31.0181 68.2774-29.5894 67.9264-27.3335 67.2246-24.2505L64.6304-13.5728C64.0539-11.2166 63.7155-9.74406 63.6152-9.15503 63.515-8.566 63.4649-7.98324 63.4649-7.40674 63.4649-5.62712 64.292-4.73731 65.9463-4.73731 66.974-4.73731 68.0079-5.13835 69.0481-5.94043 70.0883-6.74251 71.3604-7.93311 72.8643-9.51221L75.6841-6.76758C73.0523-4.13574 70.7588-2.21826 68.8037-1.01514 66.8486 0.187989 64.8058 0.789551 62.6753 0.789551 60.62 0.789551 58.9406 0.081462 57.6372-1.33472 56.3338-2.7509 55.6821-4.52425 55.6821-6.65479 55.6821-8.96078 56.1584-11.7806 57.1108-15.1143L58.9531-22.0698C59.8304-25.3283 60.2691-27.9225 60.2691-29.8525 60.2691-32.6849 59.0785-34.1011 56.6973-34.1011 55.1683-34.1011 53.7271-33.6499 52.3735-32.7476 51.02-31.8452 49.6352-30.592 48.219-28.9878 46.8028-27.3836 45.6812-25.7795 44.854-24.1753 44.0269-22.5711 43.4002-20.8291 42.9741-18.9492L38.876 0 30.7925 0 35.9434-22.0322C36.7705-25.5163 37.1841-28.1231 37.1841-29.8525 37.1841-32.6849 35.9308-34.1011 33.4243-34.1011 31.8703-34.1011 30.3726-33.6186 28.9314-32.6536 27.4902-31.6886 26.0677-30.3977 24.6641-28.781 23.2604-27.1643 22.1576-25.5789 21.3555-24.0249 20.5534-22.4709 19.9769-20.779 19.626-18.9492L15.6782 0 7.51953 0 13.3848-25.04C14.0365-27.8473 14.3623-29.9403 14.3623-31.3189 14.3623-33.0985 13.5477-33.9883 11.9185-33.9883 10.8908-33.9883 9.85059-33.5872 8.79785-32.7852 7.74512-31.9831 6.47933-30.805 5.00049-29.251L2.14307-31.958C4.7749-34.5898 7.06836-36.5136 9.02344-37.7293 10.9785-38.9449 13.0339-39.5527 15.1895-39.5527ZM99.897-46.5459C102.779-46.5459 105.167-46.2326 107.059-45.606 108.952-44.9793 110.462-44.1647 111.59-43.1621 112.718-42.1595 113.507-40.9814 113.959-39.6279 114.41-38.2744 114.635-36.8833 114.635-35.4546 114.635-33.6499 114.272-31.9768 113.545-30.4353 112.818-28.8938 111.627-27.2144 109.973-25.3972 108.319-23.58 105.361-20.7414 101.1-16.8813 96.5633-12.7707 93.2673-9.21143 91.2119-6.20361L104.785-6.20361C106.063-6.20361 107.041-6.26628 107.717-6.3916 108.394-6.51693 108.933-6.71118 109.334-6.97437 109.735-7.23755 110.073-7.56966 110.349-7.9707 110.625-8.37175 111.038-9.24902 111.59-10.6025L115.387-10.6025 114.598 0 82.4141 0 82.4141-2.06787C83.6673-4.74984 85.3592-7.38794 87.4898-9.98218 89.6203-12.5764 92.1017-15.2521 94.9341-18.0093 98.343-21.2677 100.762-23.7241 102.19-25.3784 103.619-27.0327 104.678-28.6056 105.367-30.0969 106.057-31.5883 106.401-33.0859 106.401-34.5898 106.401-37.0713 105.7-39.0264 104.296-40.4551 102.892-41.8838 100.875-42.5981 98.2427-42.5981 95.9618-42.5981 94.0255-41.9966 92.4338-40.7935 90.8422-39.5903 89.6328-37.8107 88.8057-35.4546L83.5796-35.4546 83.5796-42.8613C86.8381-44.1898 89.8396-45.136 92.5842-45.7 95.3289-46.2639 97.7664-46.5459 99.897-46.5459Z" fill-rule="evenodd" transform="matrix(1 0 0 1.00019 1790.83 566.195)"/><text fill="#000000" fill-opacity="0" font-family="Arial,Arial_MSFontService,sans-serif" font-size="47.3355" x="2.14307" y="-5.12738">𝑚2</text><path d="M24.6875-60.8125C25.9792-60.8125 27.1146-60.6667 28.0938-60.375 29.0729-60.0833 29.9375-59.6354 30.6875-59.0313 31.4375-58.4271 32.1042-57.6458 32.6875-56.6875 33.2708-55.7292 33.8333-54.4271 34.375-52.7813 34.9167-51.1354 35.4271-49.0938 35.9063-46.6563 36.3854-44.2188 36.8125-41.6875 37.1875-39.0625L37.8125-39.0625C41.8125-44.6875 44.8438-48.8021 46.9063-51.4063 48.9688-54.0104 50.7083-55.9479 52.125-57.2188 53.5417-58.4896 54.9063-59.3854 56.2188-59.9063 57.5313-60.4271 59.2708-60.6875 61.4375-60.6875 63.3958-60.6875 65-60.4375 66.25-59.9375L63.75-48.625 59.375-48.625C59.125-50.375 58.3958-51.25 57.1875-51.25 56.8125-51.25 56.4167-51.1875 56-51.0625 55.5833-50.9375 55.0729-50.6667 54.4688-50.25 53.8646-49.8333 52.9792-49.0208 51.8125-47.8125 50.6458-46.6042 49.3333-45.125 47.875-43.375 46.4167-41.625 44.9167-39.7917 43.375-37.875L39.125-32.5625C39.875-28.5625 40.5833-25.1042 41.25-22.1875 41.9167-19.2708 42.5104-16.8438 43.0313-14.9063 43.5521-12.9688 44.0104-11.4375 44.4063-10.3125 44.8021-9.1875 45.2292-8.34375 45.6875-7.78125 46.1458-7.21875 46.6146-6.82292 47.0938-6.59375 47.5729-6.36458 48.125-6.25 48.75-6.25 49.875-6.25 50.9688-6.6875 52.0313-7.5625 53.0938-8.4375 54.625-10.4167 56.625-13.5L60.6875-10.8125C57.7708-6.47917 55.1354-3.42708 52.7813-1.65625 50.4271 0.114583 47.625 1 44.375 1 42.5833 1 41.0625 0.677084 39.8125 0.0312503 38.5625-0.614583 37.4792-1.64583 36.5625-3.0625 35.6458-4.47917 34.8333-6.6875 34.125-9.6875 32.8333-15.0208 32.0417-19.1042 31.75-21.9375L31.125-21.9375C26.7083-15.7292 23.4271-11.2708 21.2813-8.5625 19.1354-5.85417 17.3646-3.85417 15.9688-2.5625 14.5729-1.27083 13.2188-0.364583 11.9063 0.15625 10.5938 0.677084 8.85417 0.9375 6.6875 0.9375 4.72917 0.9375 3.125 0.6875 1.875 0.1875L4.375-11.125 8.75-11.125C9-9.375 9.72917-8.5 10.9375-8.5 11.5208-8.5 12.1354-8.65625 12.7813-8.96875 13.4271-9.28125 14.3542-10.0313 15.5625-11.2188 16.7708-12.4063 18.4375-14.2708 20.5625-16.8125 22.6875-19.3542 25.7708-23.1667 29.8125-28.25 29.1875-31.5417 28.5417-34.7083 27.875-37.75 27.2083-40.7917 26.5208-43.625 25.8125-46.25 25.1042-48.875 24.5208-50.5938 24.0625-51.4063 23.6042-52.2188 23.1146-52.7813 22.5938-53.0938 22.0729-53.4063 21.4167-53.5625 20.625-53.5625 19.75-53.5625 18.9583-53.3646 18.25-52.9688 17.5417-52.5729 16.7708-51.8854 15.9375-50.9063 15.1042-49.9271 14-48.3958 12.625-46.3125L8.5625-49C11.1875-52.9583 13.7083-55.9167 16.125-57.875 18.5417-59.8333 21.3958-60.8125 24.6875-60.8125Z" fill-rule="evenodd" transform="matrix(1 0 0 1.00019 1238.99 1625.71)"/><text fill="#000000" fill-opacity="0" font-family="Arial,Arial_MSFontService,sans-serif" font-size="61.8125" x="1.875" y="-6.72656">𝑥</text><path d="M32.0142-41.8682C30.228-41.8682 28.5706-41.4822 27.0418-40.7102 25.5129-39.9382 24.1128-38.8787 22.8413-37.5315 21.5698-36.1843 20.4346-34.6252 19.4355-32.8543 18.4365-31.0833 17.5964-29.1912 16.9153-27.178 16.2341-25.1648 15.7195-23.1062 15.3713-21.0022 15.0232-18.8982 14.8491-16.8472 14.8491-14.8491 14.8491-11.5796 15.3108-9.15015 16.2341-7.56079 17.1575-5.97144 18.6484-5.17676 20.707-5.17676 22.1299-5.17676 23.6814-5.6687 25.3616-6.65259 27.0418-7.63648 28.6765-9.02149 30.2659-10.8076 31.8552-12.5938 33.3008-14.7507 34.6025-17.2786 35.9043-19.8064 36.8882-22.6143 37.5542-25.7022 37.9478-27.3369 38.2808-28.9792 38.5532-30.6292 38.8257-32.2791 38.9619-33.77 38.9619-35.1021 38.9619-37.5542 38.4094-39.2949 37.3044-40.3242 36.1995-41.3535 34.436-41.8682 32.0142-41.8682ZM31.1968-46.3638C33.4976-46.3638 35.5637-46.0837 37.3953-45.5237 39.2268-44.9636 40.9146-44.1992 42.4585-43.2305L46.7725-46.3638 50.4507-45.4102C48.4526-36.4189 46.4773-27.5186 44.5247-18.709 42.572-9.89942 40.7481-1.60449 39.0527 6.17578 38.4775 8.26465 38.1899 9.95996 38.1899 11.2617 38.1899 12.3818 38.6138 13.1765 39.4614 13.6458 40.3091 14.115 41.7622 14.4404 43.8208 14.6221L43.1851 17.6191 27.6094 17.6191C28.8809 12.6543 30.0691 8.04517 31.1741 3.79175 32.2791-0.46167 33.4824-5.0708 34.7842-10.0356L34.0576-10.2173C32.5439-8.24951 31.0681-6.56934 29.6301-5.17676 28.1921-3.78418 26.7844-2.64136 25.407-1.74829 24.0295-0.855225 22.6521-0.204346 21.2747 0.204346 19.8972 0.613037 18.5122 0.817383 17.1196 0.817383 13.5171 0.817383 10.7319-0.476807 8.76416-3.06519 6.79639-5.65356 5.8125-9.41504 5.8125-14.3496 5.8125-17.2861 6.1228-20.1091 6.74341-22.8186 7.36402-25.5281 8.24195-28.071 9.3772-30.4475 10.5125-32.824 11.8672-34.9885 13.4414-36.9412 15.0156-38.8938 16.7412-40.5664 18.6182-41.959 20.4951-43.3516 22.4932-44.4338 24.6123-45.2058 26.7314-45.9778 28.9263-46.3638 31.1968-46.3638Z" fill-rule="evenodd" transform="matrix(1 0 0 1.00019 1305.91 1651.84)"/><text fill="#000000" fill-opacity="0" font-family="Arial,Arial_MSFontService,sans-serif" font-size="63.9829" x="5.8125" y="9.62128">𝑞</text><path d="M15.1895-39.5527C17.1947-39.5527 18.755-38.901 19.8704-37.5977 20.9858-36.2943 21.5435-34.5522 21.5435-32.3716 21.5435-31.4692 21.4557-30.6672 21.2803-29.9653L21.769-29.7773C24.1502-33.0358 26.5565-35.4797 28.9878-37.1089 31.4191-38.7381 33.9507-39.5527 36.5825-39.5527 42.0968-39.5527 44.854-36.8708 44.854-31.5068L44.854-30.7925C44.854-30.5418 44.8289-30.2912 44.7788-30.0405L45.1548-30.0405C47.536-33.299 49.9172-35.699 52.2984-37.2405 54.6795-38.782 57.186-39.5527 59.8179-39.5527 62.7004-39.5527 64.8309-38.8133 66.2095-37.3345 67.5881-35.8556 68.2774-33.7502 68.2774-31.0181 68.2774-29.5894 67.9264-27.3335 67.2246-24.2505L64.6304-13.5728C64.0539-11.2166 63.7155-9.74406 63.6152-9.15503 63.515-8.566 63.4649-7.98324 63.4649-7.40674 63.4649-5.62712 64.292-4.73731 65.9463-4.73731 66.974-4.73731 68.0079-5.13835 69.0481-5.94043 70.0883-6.74251 71.3604-7.93311 72.8643-9.51221L75.6841-6.76758C73.0523-4.13574 70.7588-2.21826 68.8037-1.01514 66.8486 0.187989 64.8058 0.789551 62.6753 0.789551 60.62 0.789551 58.9406 0.081462 57.6372-1.33472 56.3338-2.7509 55.6821-4.52425 55.6821-6.65479 55.6821-8.96078 56.1584-11.7806 57.1108-15.1143L58.9531-22.0698C59.8304-25.3283 60.2691-27.9225 60.2691-29.8525 60.2691-32.6849 59.0785-34.1011 56.6973-34.1011 55.1683-34.1011 53.7271-33.6499 52.3735-32.7476 51.02-31.8452 49.6352-30.592 48.219-28.9878 46.8028-27.3836 45.6812-25.7795 44.854-24.1753 44.0269-22.5711 43.4002-20.8291 42.9741-18.9492L38.876 0 30.7925 0 35.9434-22.0322C36.7705-25.5163 37.1841-28.1231 37.1841-29.8525 37.1841-32.6849 35.9308-34.1011 33.4243-34.1011 31.8703-34.1011 30.3726-33.6186 28.9314-32.6536 27.4902-31.6886 26.0677-30.3977 24.6641-28.781 23.2604-27.1643 22.1576-25.5789 21.3555-24.0249 20.5534-22.4709 19.9769-20.779 19.626-18.9492L15.6782 0 7.51953 0 13.3848-25.04C14.0365-27.8473 14.3623-29.9403 14.3623-31.3189 14.3623-33.0985 13.5477-33.9883 11.9185-33.9883 10.8908-33.9883 9.85059-33.5872 8.79785-32.7852 7.74512-31.9831 6.47933-30.805 5.00049-29.251L2.14307-31.958C4.7749-34.5898 7.06836-36.5136 9.02344-37.7293 10.9785-38.9449 13.0339-39.5527 15.1895-39.5527ZM99.9722-46.5459C102.529-46.5459 104.891-46.2013 107.059-45.512 109.227-44.8227 110.969-43.7261 112.285-42.2222 113.601-40.7183 114.259-38.8384 114.259-36.5825 114.259-34.6024 113.814-32.8854 112.925-31.4316 112.035-29.9779 110.813-28.7183 109.259-27.6531 107.705-26.5878 105.7-25.5413 103.243-24.5137L103.243-23.9873C106.878-23.4108 109.785-22.1074 111.966-20.0772 114.146-18.0469 115.237-15.578 115.237-12.6704 115.237-10.1138 114.573-7.83285 113.244-5.82764 111.916-3.82243 109.885-2.23079 107.153-1.05273 104.421 0.125326 101.113 0.714356 97.2276 0.714356 94.721 0.714356 92.2772 0.495036 89.896 0.0563965 87.5148-0.382243 85.3216-0.977539 83.3164-1.72949L83.3164-9.77539 88.3169-9.77539C89.0689-7.41927 90.1717-5.71484 91.6255-4.66211 93.0793-3.60938 95.0093-3.08301 97.4155-3.08301 100.599-3.08301 103.005-3.8099 104.634-5.26367 106.264-6.71745 107.078-8.89811 107.078-11.8057 107.078-14.8887 105.994-17.2323 103.826-18.8364 101.658-20.4406 98.4432-21.2427 94.1821-21.2427L90.8735-21.2427 90.8735-25.1152C94.3075-25.2406 97.1837-25.7732 99.5022-26.7131 101.821-27.6531 103.5-28.8625 104.54-30.3413 105.581-31.8202 106.101-33.512 106.101-35.417 106.101-37.6478 105.424-39.4023 104.07-40.6807 102.717-41.959 100.749-42.5981 98.1675-42.5981 95.9367-42.5981 94.038-41.9966 92.4714-40.7935 90.9049-39.5903 89.6955-37.7982 88.8433-35.417L83.8428-35.3794 83.8428-42.9365C89.7331-45.3428 95.1096-46.5459 99.9722-46.5459Z" fill-rule="evenodd" transform="matrix(1 0 0 1.00019 1360.54 1670.91)"/><text fill="#000000" fill-opacity="0" font-family="Arial,Arial_MSFontService,sans-serif" font-size="47.3355" x="2.14307" y="-5.12738">𝑚3</text><path d="M24.6875-60.8125C25.9792-60.8125 27.1146-60.6667 28.0938-60.375 29.0729-60.0833 29.9375-59.6354 30.6875-59.0313 31.4375-58.4271 32.1042-57.6458 32.6875-56.6875 33.2708-55.7292 33.8333-54.4271 34.375-52.7813 34.9167-51.1354 35.4271-49.0938 35.9063-46.6563 36.3854-44.2188 36.8125-41.6875 37.1875-39.0625L37.8125-39.0625C41.8125-44.6875 44.8438-48.8021 46.9063-51.4063 48.9688-54.0104 50.7083-55.9479 52.125-57.2188 53.5417-58.4896 54.9063-59.3854 56.2188-59.9063 57.5313-60.4271 59.2708-60.6875 61.4375-60.6875 63.3958-60.6875 65-60.4375 66.25-59.9375L63.75-48.625 59.375-48.625C59.125-50.375 58.3958-51.25 57.1875-51.25 56.8125-51.25 56.4167-51.1875 56-51.0625 55.5833-50.9375 55.0729-50.6667 54.4688-50.25 53.8646-49.8333 52.9792-49.0208 51.8125-47.8125 50.6458-46.6042 49.3333-45.125 47.875-43.375 46.4167-41.625 44.9167-39.7917 43.375-37.875L39.125-32.5625C39.875-28.5625 40.5833-25.1042 41.25-22.1875 41.9167-19.2708 42.5104-16.8438 43.0313-14.9063 43.5521-12.9688 44.0104-11.4375 44.4063-10.3125 44.8021-9.1875 45.2292-8.34375 45.6875-7.78125 46.1458-7.21875 46.6146-6.82292 47.0938-6.59375 47.5729-6.36458 48.125-6.25 48.75-6.25 49.875-6.25 50.9688-6.6875 52.0313-7.5625 53.0938-8.4375 54.625-10.4167 56.625-13.5L60.6875-10.8125C57.7708-6.47917 55.1354-3.42708 52.7813-1.65625 50.4271 0.114583 47.625 1 44.375 1 42.5833 1 41.0625 0.677084 39.8125 0.0312503 38.5625-0.614583 37.4792-1.64583 36.5625-3.0625 35.6458-4.47917 34.8333-6.6875 34.125-9.6875 32.8333-15.0208 32.0417-19.1042 31.75-21.9375L31.125-21.9375C26.7083-15.7292 23.4271-11.2708 21.2813-8.5625 19.1354-5.85417 17.3646-3.85417 15.9688-2.5625 14.5729-1.27083 13.2188-0.364583 11.9063 0.15625 10.5938 0.677084 8.85417 0.9375 6.6875 0.9375 4.72917 0.9375 3.125 0.6875 1.875 0.1875L4.375-11.125 8.75-11.125C9-9.375 9.72917-8.5 10.9375-8.5 11.5208-8.5 12.1354-8.65625 12.7813-8.96875 13.4271-9.28125 14.3542-10.0313 15.5625-11.2188 16.7708-12.4063 18.4375-14.2708 20.5625-16.8125 22.6875-19.3542 25.7708-23.1667 29.8125-28.25 29.1875-31.5417 28.5417-34.7083 27.875-37.75 27.2083-40.7917 26.5208-43.625 25.8125-46.25 25.1042-48.875 24.5208-50.5938 24.0625-51.4063 23.6042-52.2188 23.1146-52.7813 22.5938-53.0938 22.0729-53.4063 21.4167-53.5625 20.625-53.5625 19.75-53.5625 18.9583-53.3646 18.25-52.9688 17.5417-52.5729 16.7708-51.8854 15.9375-50.9063 15.1042-49.9271 14-48.3958 12.625-46.3125L8.5625-49C11.1875-52.9583 13.7083-55.9167 16.125-57.875 18.5417-59.8333 21.3958-60.8125 24.6875-60.8125Z" fill-rule="evenodd" transform="matrix(1 0 0 1.00019 40.1328 1247.78)"/><text fill="#000000" fill-opacity="0" font-family="Arial,Arial_MSFontService,sans-serif" font-size="61.8125" x="1.875" y="-6.72656">𝑥</text><path d="M32.0142-41.8682C30.228-41.8682 28.5706-41.4822 27.0418-40.7102 25.5129-39.9382 24.1128-38.8787 22.8413-37.5315 21.5698-36.1843 20.4346-34.6252 19.4355-32.8543 18.4365-31.0833 17.5964-29.1912 16.9153-27.178 16.2341-25.1648 15.7195-23.1062 15.3713-21.0022 15.0232-18.8982 14.8491-16.8472 14.8491-14.8491 14.8491-11.5796 15.3108-9.15015 16.2341-7.56079 17.1575-5.97144 18.6484-5.17676 20.707-5.17676 22.1299-5.17676 23.6814-5.6687 25.3616-6.65259 27.0418-7.63648 28.6765-9.02149 30.2659-10.8076 31.8552-12.5938 33.3008-14.7507 34.6025-17.2786 35.9043-19.8064 36.8882-22.6143 37.5542-25.7022 37.9478-27.3369 38.2808-28.9792 38.5532-30.6292 38.8257-32.2791 38.9619-33.77 38.9619-35.1021 38.9619-37.5542 38.4094-39.2949 37.3044-40.3242 36.1995-41.3535 34.436-41.8682 32.0142-41.8682ZM31.1968-46.3638C33.4976-46.3638 35.5637-46.0837 37.3953-45.5237 39.2268-44.9636 40.9146-44.1992 42.4585-43.2305L46.7725-46.3638 50.4507-45.4102C48.4526-36.4189 46.4773-27.5186 44.5247-18.709 42.572-9.89942 40.7481-1.60449 39.0527 6.17578 38.4775 8.26465 38.1899 9.95996 38.1899 11.2617 38.1899 12.3818 38.6138 13.1765 39.4614 13.6458 40.3091 14.115 41.7622 14.4404 43.8208 14.6221L43.1851 17.6191 27.6094 17.6191C28.8809 12.6543 30.0691 8.04517 31.1741 3.79175 32.2791-0.46167 33.4824-5.0708 34.7842-10.0356L34.0576-10.2173C32.5439-8.24951 31.0681-6.56934 29.6301-5.17676 28.1921-3.78418 26.7844-2.64136 25.407-1.74829 24.0295-0.855225 22.6521-0.204346 21.2747 0.204346 19.8972 0.613037 18.5122 0.817383 17.1196 0.817383 13.5171 0.817383 10.7319-0.476807 8.76416-3.06519 6.79639-5.65356 5.8125-9.41504 5.8125-14.3496 5.8125-17.2861 6.1228-20.1091 6.74341-22.8186 7.36402-25.5281 8.24195-28.071 9.3772-30.4475 10.5125-32.824 11.8672-34.9885 13.4414-36.9412 15.0156-38.8938 16.7412-40.5664 18.6182-41.959 20.4951-43.3516 22.4932-44.4338 24.6123-45.2058 26.7314-45.9778 28.9263-46.3638 31.1968-46.3638Z" fill-rule="evenodd" transform="matrix(1 0 0 1.00019 107.046 1273.92)"/><text fill="#000000" fill-opacity="0" font-family="Arial,Arial_MSFontService,sans-serif" font-size="63.9829" x="5.8125" y="9.62128">𝑞</text><path d="M101.363-37.0337 87.377-18.0093 87.377-17.5581 101.438-17.5581 101.438-24.1001C101.438-25.7043 101.476-27.816 101.551-30.4353 101.626-33.0546 101.727-35.2541 101.852-37.0337ZM15.1895-39.5527C17.1947-39.5527 18.755-38.901 19.8704-37.5977 20.9858-36.2943 21.5435-34.5522 21.5435-32.3716 21.5435-31.4692 21.4557-30.6672 21.2803-29.9653L21.769-29.7773C24.1502-33.0358 26.5565-35.4797 28.9878-37.1089 31.4191-38.7381 33.9507-39.5527 36.5825-39.5527 42.0968-39.5527 44.854-36.8708 44.854-31.5068L44.854-30.7925C44.854-30.5418 44.8289-30.2912 44.7788-30.0405L45.1548-30.0405C47.536-33.299 49.9172-35.699 52.2983-37.2405 54.6795-38.782 57.186-39.5527 59.8179-39.5527 62.7004-39.5527 64.8309-38.8133 66.2095-37.3345 67.5881-35.8556 68.2774-33.7502 68.2774-31.0181 68.2774-29.5894 67.9264-27.3335 67.2246-24.2505L64.6304-13.5728C64.0539-11.2166 63.7155-9.74406 63.6152-9.15503 63.515-8.566 63.4649-7.98324 63.4649-7.40674 63.4649-5.62712 64.292-4.7373 65.9463-4.7373 66.974-4.7373 68.0079-5.13835 69.0481-5.94043 70.0883-6.74251 71.3604-7.93311 72.8643-9.51221L75.6841-6.76758C73.0523-4.13574 70.7588-2.21826 68.8037-1.01514 66.8486 0.187988 64.8058 0.789551 62.6753 0.789551 60.62 0.789551 58.9406 0.0814615 57.6372-1.33472 56.3338-2.7509 55.6821-4.52425 55.6821-6.65479 55.6821-8.96078 56.1584-11.7806 57.1108-15.1143L58.9531-22.0698C59.8304-25.3283 60.2691-27.9225 60.2691-29.8525 60.2691-32.6849 59.0785-34.1011 56.6973-34.1011 55.1683-34.1011 53.7271-33.6499 52.3735-32.7476 51.02-31.8452 49.6352-30.592 48.219-28.9878 46.8028-27.3836 45.6812-25.7795 44.854-24.1753 44.0269-22.5711 43.4002-20.8291 42.9741-18.9492L38.876 0 30.7925 0 35.9434-22.0322C36.7705-25.5163 37.1841-28.1231 37.1841-29.8525 37.1841-32.6849 35.9308-34.1011 33.4243-34.1011 31.8703-34.1011 30.3726-33.6186 28.9314-32.6536 27.4902-31.6886 26.0677-30.3977 24.6641-28.781 23.2604-27.1643 22.1576-25.5789 21.3555-24.0249 20.5534-22.4709 19.9769-20.779 19.626-18.9492L15.6782 0 7.51953 0 13.3848-25.04C14.0365-27.8473 14.3623-29.9403 14.3623-31.3189 14.3623-33.0985 13.5477-33.9883 11.9185-33.9883 10.8908-33.9883 9.85059-33.5872 8.79785-32.7852 7.74512-31.9831 6.47933-30.805 5.00049-29.251L2.14307-31.958C4.7749-34.5898 7.06836-36.5136 9.02344-37.7293 10.9785-38.9449 13.0339-39.5527 15.1895-39.5527ZM102.416-45.9443 108.77-45.9443 108.77-17.5581 109.447-17.5581C110.876-17.5581 111.909-17.6772 112.549-17.9153 113.188-18.1534 113.72-18.567 114.146-19.156 114.573-19.745 114.936-20.6411 115.237-21.8442L118.733-21.8442 118.207-13.3848 108.77-13.3848 108.77-9.17383C108.77-7.19369 108.902-5.8151 109.165-5.03809 109.428-4.26107 109.873-3.70337 110.5-3.36499 111.126-3.02661 112.154-2.7321 113.583-2.48145L113.583 0 96.626 0 96.626-2.48145C98.2552-2.75716 99.3456-3.08301 99.897-3.45899 100.448-3.83496 100.843-4.39266 101.081-5.13208 101.319-5.8715 101.438-7.21875 101.438-9.17383L101.438-13.3848 80.1958-13.3848 80.1958-16.355Z" fill-rule="evenodd" transform="matrix(1 0 0 1.00019 161.674 1292.98)"/><text fill="#000000" fill-opacity="0" font-family="Arial,Arial_MSFontService,sans-serif" font-size="46.7339" x="2.14307" y="-5.05219">𝑚4</text><path d="M24.6875-60.8125C25.9792-60.8125 27.1146-60.6667 28.0938-60.375 29.0729-60.0833 29.9375-59.6354 30.6875-59.0313 31.4375-58.4271 32.1042-57.6458 32.6875-56.6875 33.2708-55.7292 33.8333-54.4271 34.375-52.7813 34.9167-51.1354 35.4271-49.0938 35.9063-46.6563 36.3854-44.2188 36.8125-41.6875 37.1875-39.0625L37.8125-39.0625C41.8125-44.6875 44.8438-48.8021 46.9063-51.4063 48.9688-54.0104 50.7083-55.9479 52.125-57.2188 53.5417-58.4896 54.9063-59.3854 56.2188-59.9063 57.5313-60.4271 59.2708-60.6875 61.4375-60.6875 63.3958-60.6875 65-60.4375 66.25-59.9375L63.75-48.625 59.375-48.625C59.125-50.375 58.3958-51.25 57.1875-51.25 56.8125-51.25 56.4167-51.1875 56-51.0625 55.5833-50.9375 55.0729-50.6667 54.4688-50.25 53.8646-49.8333 52.9792-49.0208 51.8125-47.8125 50.6458-46.6042 49.3333-45.125 47.875-43.375 46.4167-41.625 44.9167-39.7917 43.375-37.875L39.125-32.5625C39.875-28.5625 40.5833-25.1042 41.25-22.1875 41.9167-19.2708 42.5104-16.8438 43.0313-14.9063 43.5521-12.9688 44.0104-11.4375 44.4063-10.3125 44.8021-9.1875 45.2292-8.34375 45.6875-7.78125 46.1458-7.21875 46.6146-6.82292 47.0938-6.59375 47.5729-6.36458 48.125-6.25 48.75-6.25 49.875-6.25 50.9688-6.6875 52.0313-7.5625 53.0938-8.4375 54.625-10.4167 56.625-13.5L60.6875-10.8125C57.7708-6.47917 55.1354-3.42708 52.7813-1.65625 50.4271 0.114583 47.625 1 44.375 1 42.5833 1 41.0625 0.677084 39.8125 0.0312503 38.5625-0.614583 37.4792-1.64583 36.5625-3.0625 35.6458-4.47917 34.8333-6.6875 34.125-9.6875 32.8333-15.0208 32.0417-19.1042 31.75-21.9375L31.125-21.9375C26.7083-15.7292 23.4271-11.2708 21.2813-8.5625 19.1354-5.85417 17.3646-3.85417 15.9688-2.5625 14.5729-1.27083 13.2188-0.364583 11.9063 0.15625 10.5938 0.677084 8.85417 0.9375 6.6875 0.9375 4.72917 0.9375 3.125 0.6875 1.875 0.1875L4.375-11.125 8.75-11.125C9-9.375 9.72917-8.5 10.9375-8.5 11.5208-8.5 12.1354-8.65625 12.7813-8.96875 13.4271-9.28125 14.3542-10.0313 15.5625-11.2188 16.7708-12.4063 18.4375-14.2708 20.5625-16.8125 22.6875-19.3542 25.7708-23.1667 29.8125-28.25 29.1875-31.5417 28.5417-34.7083 27.875-37.75 27.2083-40.7917 26.5208-43.625 25.8125-46.25 25.1042-48.875 24.5208-50.5938 24.0625-51.4063 23.6042-52.2188 23.1146-52.7813 22.5938-53.0938 22.0729-53.4063 21.4167-53.5625 20.625-53.5625 19.75-53.5625 18.9583-53.3646 18.25-52.9688 17.5417-52.5729 16.7708-51.8854 15.9375-50.9063 15.1042-49.9271 14-48.3958 12.625-46.3125L8.5625-49C11.1875-52.9583 13.7083-55.9167 16.125-57.875 18.5417-59.8333 21.3958-60.8125 24.6875-60.8125Z" fill-rule="evenodd" transform="matrix(1 0 0 1.00019 780.568 814.124)"/><text fill="#000000" fill-opacity="0" font-family="Arial,Arial_MSFontService,sans-serif" font-size="61.8125" x="1.875" y="-6.72656">𝑥</text><path d="M21.7969-45.9097 24.022-45.9097 17.3013-15.6665C16.8774-13.8804 16.5823-12.4575 16.4158-11.398 16.2493-10.3384 16.166-9.38477 16.166-8.53711 16.166-7.38672 16.4006-6.5542 16.8699-6.03955 17.3391-5.5249 18.043-5.26758 18.9814-5.26758 19.5264-5.26758 20.0713-5.37354 20.6162-5.58545 21.1611-5.79736 21.7439-6.13037 22.3645-6.58447 22.9851-7.03857 23.6663-7.62134 24.408-8.33276 25.1497-9.04419 25.9746-9.89942 26.8828-10.8984L29.9707-7.90137C28.3965-6.29688 26.9661-4.94214 25.6794-3.83716 24.3928-2.73218 23.1743-1.83154 22.0239-1.13525 20.8735-0.438965 19.7459 0.0605469 18.6409 0.363281 17.5359 0.666016 16.3628 0.817383 15.1216 0.817383 13.9712 0.817383 12.9343 0.605469 12.011 0.181641 11.0876-0.242188 10.293-0.824951 9.62695-1.56665 8.96094-2.30835 8.44629-3.19385 8.08301-4.22315 7.71973-5.25244 7.53809-6.3877 7.53809-7.62891 7.53809-8.62793 7.65918-9.86914 7.90137-11.3525 8.14356-12.8359 8.45386-14.448 8.83228-16.1887 9.21069-17.9294 9.62695-19.7534 10.0811-21.6606 10.5352-23.5679 10.9817-25.46 11.4207-27.3369 11.8596-29.2139 12.2532-31.0227 12.6013-32.7634 12.9495-34.5042 13.1992-36.0859 13.3506-37.5088 13.4111-37.751 13.4414-37.9856 13.4414-38.2127 13.4414-38.4397 13.4414-38.644 13.4414-38.8257 13.3809-40.0064 12.9646-40.8691 12.1926-41.4141 11.4207-41.959 10.0508-42.2617 8.08301-42.3223L8.62793-45.4102ZM19.1631-64.21 28.2451-64.21 26.02-54.4468 17.0288-54.4468Z" fill-rule="evenodd" transform="matrix(1 0 0 1.00019 847.482 840.259)"/><text fill="#000000" fill-opacity="0" font-family="Arial,Arial_MSFontService,sans-serif" font-size="65.0274" x="7.53809" y="-7.31104">𝑖</text><path d="M20.625-60.75C22.3333-60.75 23.7917-60.5208 25-60.0625 25.8333-59.7292 26.6667-59.1771 27.5-58.4063 28.3333-57.6354 29.0729-56.5625 29.7188-55.1875 30.3646-53.8125 30.9271-52.2708 31.4063-50.5625 31.8854-48.8542 32.4167-46.3958 33-43.1875 34-37.8125 34.9688-32.1563 35.9063-26.2188 36.8438-20.2812 37.6458-14.7708 38.3125-9.6875 42.3542-15.5208 45.7813-21.2292 48.5938-26.8125 51.4063-32.3958 53.4271-37.25 54.6563-41.375 55.8854-45.5 56.5-48.8542 56.5-51.4375 56.5-53.3958 56.0833-54.7292 55.25-55.4375 54.4167-56.1458 53-56.5625 51-56.6875L51.625-59.75 68.0625-59.75 69.75-56.625C66.5833-47.9583 62.2917-38.6875 56.875-28.8125 51.5417-19.1458 45.4375-9.52083 38.5625 0.0625006 31.9792 9.1875 26.5 15.7917 22.125 19.875 19.0833 22.6667 16.1458 24.6667 13.3125 25.875 11.0625 26.7917 8.66667 27.25 6.125 27.25 5.25 27.25 4.23958 27.1771 3.09375 27.0313 1.94792 26.8854 1.0625 26.6875 0.437501 26.4375L3.125 14.3125 8.0625 14.3125C8.0625 16.9792 8.97917 18.3125 10.8125 18.3125 13.2292 18.3125 16.0417 16.8021 19.25 13.7813 22.4583 10.7604 26.2292 6.20833 30.5625 0.125 29.3542-7.16667 27.7083-15.9583 25.625-26.25 23.4167-37.25 21.9583-44.0625 21.25-46.6875 20.375-49.8542 19.4583-51.875 18.5-52.75 17.9167-53.2917 17.1875-53.5625 16.3125-53.5625 14.9792-53.5625 13.7292-53.0208 12.5625-51.9375 11.3958-50.8542 9.95833-48.9792 8.25-46.3125L4.1875-49C7.0625-53.2917 9.75-56.3229 12.25-58.0938 14.75-59.8646 17.5417-60.75 20.625-60.75Z" fill-rule="evenodd" transform="matrix(1 0 0 1.00019 2431.56 79.3744)"/><text fill="#000000" fill-opacity="0" font-family="Arial,Arial_MSFontService,sans-serif" font-size="88" x="0.437501" y="16.25">𝑦</text><path d="M32.0142-41.8682C30.228-41.8682 28.5706-41.4822 27.0418-40.7102 25.5129-39.9382 24.1128-38.8787 22.8413-37.5315 21.5698-36.1843 20.4346-34.6252 19.4355-32.8543 18.4365-31.0833 17.5964-29.1912 16.9153-27.178 16.2341-25.1648 15.7195-23.1062 15.3713-21.0022 15.0232-18.8982 14.8491-16.8472 14.8491-14.8491 14.8491-11.5796 15.3108-9.15015 16.2341-7.56079 17.1575-5.97144 18.6484-5.17676 20.707-5.17676 22.1299-5.17676 23.6814-5.6687 25.3616-6.65259 27.0418-7.63648 28.6765-9.02149 30.2659-10.8076 31.8552-12.5938 33.3008-14.7507 34.6025-17.2786 35.9043-19.8064 36.8882-22.6143 37.5542-25.7022 37.9478-27.3369 38.2808-28.9792 38.5532-30.6292 38.8257-32.2791 38.9619-33.77 38.9619-35.1021 38.9619-37.5542 38.4094-39.2949 37.3044-40.3242 36.1995-41.3535 34.436-41.8682 32.0142-41.8682ZM31.1968-46.3638C33.4976-46.3638 35.5637-46.0837 37.3953-45.5237 39.2268-44.9636 40.9146-44.1992 42.4585-43.2305L46.7725-46.3638 50.4507-45.4102C48.4526-36.4189 46.4773-27.5186 44.5247-18.709 42.572-9.89942 40.7481-1.60449 39.0527 6.17578 38.4775 8.26465 38.1899 9.95996 38.1899 11.2617 38.1899 12.3818 38.6138 13.1765 39.4614 13.6458 40.3091 14.115 41.7622 14.4404 43.8208 14.6221L43.1851 17.6191 27.6094 17.6191C28.8809 12.6543 30.0691 8.04517 31.1741 3.79175 32.2791-0.46167 33.4824-5.0708 34.7842-10.0356L34.0576-10.2173C32.5439-8.24951 31.0681-6.56934 29.6301-5.17676 28.1921-3.78418 26.7844-2.64136 25.407-1.74829 24.0295-0.855225 22.6521-0.204346 21.2747 0.204346 19.8972 0.613037 18.5122 0.817383 17.1196 0.817383 13.5171 0.817383 10.7319-0.476807 8.76416-3.06519 6.79639-5.65356 5.8125-9.41504 5.8125-14.3496 5.8125-17.2861 6.1228-20.1091 6.74341-22.8186 7.36402-25.5281 8.24195-28.071 9.3772-30.4475 10.5125-32.824 11.8672-34.9885 13.4414-36.9412 15.0156-38.8938 16.7412-40.5664 18.6182-41.959 20.4951-43.3516 22.4932-44.4338 24.6123-45.2058 26.7314-45.9778 28.9263-46.3638 31.1968-46.3638Z" fill-rule="evenodd" transform="matrix(1 0 0 1.00019 2491.98 105.509)"/><text fill="#000000" fill-opacity="0" font-family="Arial,Arial_MSFontService,sans-serif" font-size="63.9829" x="5.8125" y="9.62128">𝑞</text><path d="M15.1895-39.5527C17.1947-39.5527 18.755-38.901 19.8704-37.5977 20.9858-36.2943 21.5435-34.5522 21.5435-32.3716 21.5435-31.4692 21.4557-30.6672 21.2803-29.9653L21.769-29.7773C24.1502-33.0358 26.5565-35.4797 28.9878-37.1089 31.4191-38.7381 33.9507-39.5527 36.5825-39.5527 42.0968-39.5527 44.854-36.8708 44.854-31.5068L44.854-30.7925C44.854-30.5418 44.8289-30.2912 44.7788-30.0405L45.1548-30.0405C47.536-33.299 49.9172-35.699 52.2983-37.2405 54.6795-38.782 57.186-39.5527 59.8179-39.5527 62.7004-39.5527 64.8309-38.8133 66.2095-37.3345 67.5881-35.8556 68.2774-33.7502 68.2774-31.0181 68.2774-29.5894 67.9264-27.3335 67.2246-24.2505L64.6304-13.5728C64.0539-11.2166 63.7155-9.74406 63.6152-9.15503 63.515-8.566 63.4649-7.98324 63.4649-7.40674 63.4649-5.62712 64.292-4.7373 65.9463-4.7373 66.974-4.7373 68.0079-5.13835 69.0481-5.94043 70.0883-6.74251 71.3604-7.93311 72.8643-9.51221L75.6841-6.76758C73.0523-4.13574 70.7588-2.21826 68.8037-1.01514 66.8486 0.187988 64.8058 0.789551 62.6753 0.789551 60.62 0.789551 58.9406 0.0814616 57.6372-1.33472 56.3338-2.7509 55.6821-4.52425 55.6821-6.65479 55.6821-8.96078 56.1584-11.7806 57.1109-15.1143L58.9531-22.0698C59.8304-25.3283 60.2691-27.9225 60.2691-29.8525 60.2691-32.6849 59.0785-34.1011 56.6973-34.1011 55.1683-34.1011 53.7271-33.6499 52.3735-32.7476 51.02-31.8452 49.6352-30.592 48.219-28.9878 46.8028-27.3836 45.6812-25.7795 44.854-24.1753 44.0269-22.5711 43.4002-20.8291 42.9741-18.9492L38.876 0 30.7925 0 35.9434-22.0322C36.7705-25.5163 37.1841-28.1231 37.1841-29.8525 37.1841-32.6849 35.9308-34.1011 33.4243-34.1011 31.8703-34.1011 30.3726-33.6186 28.9314-32.6536 27.4902-31.6886 26.0677-30.3977 24.6641-28.781 23.2604-27.1643 22.1576-25.5789 21.3555-24.0249 20.5534-22.4709 19.9769-20.779 19.626-18.9492L15.6782 0 7.51953 0 13.3848-25.04C14.0365-27.8473 14.3623-29.9403 14.3623-31.3189 14.3623-33.0985 13.5477-33.9883 11.9185-33.9883 10.8908-33.9883 9.85059-33.5872 8.79785-32.7852 7.74512-31.9831 6.47933-30.805 5.00049-29.251L2.14307-31.958C4.7749-34.5898 7.06836-36.5136 9.02344-37.7293 10.9785-38.9449 13.0339-39.5527 15.1895-39.5527ZM103.13-46.2075 105.612-46.2075C105.562-45.6812 105.512-44.4028 105.461-42.3726 105.411-40.3423 105.386-38.2995 105.386-36.2441L105.386-9.77539C105.386-8.19629 105.524-7.06836 105.8-6.3916 106.076-5.71484 106.514-5.18221 107.116-4.7937 107.717-4.40519 108.745-4.10441 110.199-3.89136 111.653-3.6783 113.959-3.54671 117.117-3.49658L117.117 0 85.9482 0 85.9482-3.49658C89.0062-3.57178 91.2432-3.70964 92.6594-3.91016 94.0756-4.11068 95.1158-4.40519 95.78-4.7937 96.4443-5.18221 96.933-5.71484 97.2464-6.3916 97.5597-7.06836 97.7163-8.19629 97.7163-9.77539L97.7163-34.7026C97.7163-35.605 97.5346-36.2567 97.1712-36.6577 96.8077-37.0588 96.2876-37.2593 95.6108-37.2593 94.8589-37.2593 93.6808-36.852 92.0767-36.0374 90.4725-35.2227 88.4172-34.0259 85.9107-32.4468L83.918-36.2441Z" fill-rule="evenodd" transform="matrix(1 0 0 1.00019 2546.6 124.574)"/><text fill="#000000" fill-opacity="0" font-family="Arial,Arial_MSFontService,sans-serif" font-size="46.9971" x="2.14307" y="-5.08508">𝑚1</text><path d="M20.625-60.75C22.3333-60.75 23.7917-60.5208 25-60.0625 25.8333-59.7292 26.6667-59.1771 27.5-58.4063 28.3333-57.6354 29.0729-56.5625 29.7188-55.1875 30.3646-53.8125 30.9271-52.2708 31.4063-50.5625 31.8854-48.8542 32.4167-46.3958 33-43.1875 34-37.8125 34.9688-32.1563 35.9063-26.2188 36.8438-20.2812 37.6458-14.7708 38.3125-9.6875 42.3542-15.5208 45.7813-21.2292 48.5938-26.8125 51.4063-32.3958 53.4271-37.25 54.6563-41.375 55.8854-45.5 56.5-48.8542 56.5-51.4375 56.5-53.3958 56.0833-54.7292 55.25-55.4375 54.4167-56.1458 53-56.5625 51-56.6875L51.625-59.75 68.0625-59.75 69.75-56.625C66.5833-47.9583 62.2917-38.6875 56.875-28.8125 51.5417-19.1458 45.4375-9.52083 38.5625 0.0625006 31.9792 9.1875 26.5 15.7917 22.125 19.875 19.0833 22.6667 16.1458 24.6667 13.3125 25.875 11.0625 26.7917 8.66667 27.25 6.125 27.25 5.25 27.25 4.23958 27.1771 3.09375 27.0313 1.94792 26.8854 1.0625 26.6875 0.437501 26.4375L3.125 14.3125 8.0625 14.3125C8.0625 16.9792 8.97917 18.3125 10.8125 18.3125 13.2292 18.3125 16.0417 16.8021 19.25 13.7813 22.4583 10.7604 26.2292 6.20833 30.5625 0.125 29.3542-7.16667 27.7083-15.9583 25.625-26.25 23.4167-37.25 21.9583-44.0625 21.25-46.6875 20.375-49.8542 19.4583-51.875 18.5-52.75 17.9167-53.2917 17.1875-53.5625 16.3125-53.5625 14.9792-53.5625 13.7292-53.0208 12.5625-51.9375 11.3958-50.8542 9.95833-48.9792 8.25-46.3125L4.1875-49C7.0625-53.2917 9.75-56.3229 12.25-58.0938 14.75-59.8646 17.5417-60.75 20.625-60.75Z" fill-rule="evenodd" transform="matrix(1 0 0 1.00019 3177.69 420.362)"/><text fill="#000000" fill-opacity="0" font-family="Arial,Arial_MSFontService,sans-serif" font-size="88" x="0.437501" y="16.25">𝑦</text><path d="M32.0142-41.8682C30.228-41.8682 28.5706-41.4822 27.0418-40.7102 25.5129-39.9382 24.1128-38.8787 22.8413-37.5315 21.5698-36.1843 20.4346-34.6252 19.4355-32.8543 18.4365-31.0833 17.5964-29.1912 16.9153-27.178 16.2341-25.1648 15.7195-23.1062 15.3713-21.0022 15.0232-18.8982 14.8491-16.8472 14.8491-14.8491 14.8491-11.5796 15.3108-9.15015 16.2341-7.56079 17.1575-5.97144 18.6484-5.17676 20.707-5.17676 22.1299-5.17676 23.6814-5.6687 25.3616-6.65259 27.0418-7.63648 28.6765-9.02149 30.2659-10.8076 31.8552-12.5938 33.3008-14.7507 34.6025-17.2786 35.9043-19.8064 36.8882-22.6143 37.5542-25.7022 37.9478-27.3369 38.2808-28.9792 38.5532-30.6292 38.8257-32.2791 38.9619-33.77 38.9619-35.1021 38.9619-37.5542 38.4094-39.2949 37.3044-40.3242 36.1995-41.3535 34.436-41.8682 32.0142-41.8682ZM31.1968-46.3638C33.4976-46.3638 35.5637-46.0837 37.3953-45.5237 39.2268-44.9636 40.9146-44.1992 42.4585-43.2305L46.7725-46.3638 50.4507-45.4102C48.4526-36.4189 46.4773-27.5186 44.5247-18.709 42.572-9.89942 40.7481-1.60449 39.0527 6.17578 38.4775 8.26465 38.1899 9.95996 38.1899 11.2617 38.1899 12.3818 38.6138 13.1765 39.4614 13.6458 40.3091 14.115 41.7622 14.4404 43.8208 14.6221L43.1851 17.6191 27.6094 17.6191C28.8809 12.6543 30.0691 8.04517 31.1741 3.79175 32.2791-0.46167 33.4824-5.0708 34.7842-10.0356L34.0576-10.2173C32.5439-8.24951 31.0681-6.56934 29.6301-5.17676 28.1921-3.78418 26.7844-2.64136 25.407-1.74829 24.0295-0.855225 22.6521-0.204346 21.2747 0.204346 19.8972 0.613037 18.5122 0.817383 17.1196 0.817383 13.5171 0.817383 10.7319-0.476807 8.76416-3.06519 6.79639-5.65356 5.8125-9.41504 5.8125-14.3496 5.8125-17.2861 6.1228-20.1091 6.74341-22.8186 7.36402-25.5281 8.24195-28.071 9.3772-30.4475 10.5125-32.824 11.8672-34.9885 13.4414-36.9412 15.0156-38.8938 16.7412-40.5664 18.6182-41.959 20.4951-43.3516 22.4932-44.4338 24.6123-45.2058 26.7314-45.9778 28.9263-46.3638 31.1968-46.3638Z" fill-rule="evenodd" transform="matrix(1 0 0 1.00019 3238.1 446.497)"/><text fill="#000000" fill-opacity="0" font-family="Arial,Arial_MSFontService,sans-serif" font-size="63.9829" x="5.8125" y="9.62128">𝑞</text><path d="M15.1895-39.5527C17.1947-39.5527 18.755-38.901 19.8704-37.5977 20.9858-36.2943 21.5435-34.5522 21.5435-32.3716 21.5435-31.4692 21.4557-30.6672 21.2803-29.9653L21.769-29.7773C24.1502-33.0358 26.5565-35.4797 28.9878-37.1089 31.4191-38.7381 33.9507-39.5527 36.5825-39.5527 42.0968-39.5527 44.854-36.8708 44.854-31.5068L44.854-30.7925C44.854-30.5418 44.8289-30.2912 44.7788-30.0405L45.1548-30.0405C47.536-33.299 49.9172-35.699 52.2984-37.2405 54.6795-38.782 57.186-39.5527 59.8179-39.5527 62.7004-39.5527 64.8309-38.8133 66.2095-37.3345 67.5881-35.8556 68.2774-33.7502 68.2774-31.0181 68.2774-29.5894 67.9264-27.3335 67.2246-24.2505L64.6304-13.5728C64.0539-11.2166 63.7155-9.74406 63.6152-9.15503 63.515-8.566 63.4649-7.98324 63.4649-7.40674 63.4649-5.62712 64.292-4.73731 65.9463-4.73731 66.974-4.73731 68.0079-5.13835 69.0481-5.94043 70.0883-6.74251 71.3604-7.93311 72.8643-9.51221L75.6841-6.76758C73.0523-4.13574 70.7588-2.21826 68.8037-1.01514 66.8486 0.187989 64.8058 0.789551 62.6753 0.789551 60.62 0.789551 58.9406 0.081462 57.6372-1.33472 56.3338-2.7509 55.6821-4.52425 55.6821-6.65479 55.6821-8.96078 56.1584-11.7806 57.1108-15.1143L58.9531-22.0698C59.8304-25.3283 60.2691-27.9225 60.2691-29.8525 60.2691-32.6849 59.0785-34.1011 56.6973-34.1011 55.1683-34.1011 53.7271-33.6499 52.3735-32.7476 51.02-31.8452 49.6352-30.592 48.219-28.9878 46.8028-27.3836 45.6812-25.7795 44.854-24.1753 44.0269-22.5711 43.4002-20.8291 42.9741-18.9492L38.876 0 30.7925 0 35.9434-22.0322C36.7705-25.5163 37.1841-28.1231 37.1841-29.8525 37.1841-32.6849 35.9308-34.1011 33.4243-34.1011 31.8703-34.1011 30.3726-33.6186 28.9314-32.6536 27.4902-31.6886 26.0677-30.3977 24.6641-28.781 23.2604-27.1643 22.1576-25.5789 21.3555-24.0249 20.5534-22.4709 19.9769-20.779 19.626-18.9492L15.6782 0 7.51953 0 13.3848-25.04C14.0365-27.8473 14.3623-29.9403 14.3623-31.3189 14.3623-33.0985 13.5477-33.9883 11.9185-33.9883 10.8908-33.9883 9.85059-33.5872 8.79785-32.7852 7.74512-31.9831 6.47933-30.805 5.00049-29.251L2.14307-31.958C4.7749-34.5898 7.06836-36.5136 9.02344-37.7293 10.9785-38.9449 13.0339-39.5527 15.1895-39.5527ZM99.897-46.5459C102.779-46.5459 105.167-46.2326 107.059-45.606 108.952-44.9793 110.462-44.1647 111.59-43.1621 112.718-42.1595 113.507-40.9814 113.959-39.6279 114.41-38.2744 114.635-36.8833 114.635-35.4546 114.635-33.6499 114.272-31.9768 113.545-30.4353 112.818-28.8938 111.627-27.2144 109.973-25.3972 108.319-23.58 105.361-20.7414 101.1-16.8813 96.5633-12.7707 93.2673-9.21143 91.2119-6.20361L104.785-6.20361C106.063-6.20361 107.041-6.26628 107.717-6.3916 108.394-6.51693 108.933-6.71118 109.334-6.97437 109.735-7.23755 110.073-7.56966 110.349-7.9707 110.625-8.37175 111.038-9.24902 111.59-10.6025L115.387-10.6025 114.598 0 82.4141 0 82.4141-2.06787C83.6673-4.74984 85.3592-7.38794 87.4898-9.98218 89.6203-12.5764 92.1017-15.2521 94.9341-18.0093 98.343-21.2677 100.762-23.7241 102.19-25.3784 103.619-27.0327 104.678-28.6056 105.367-30.0969 106.057-31.5883 106.401-33.0859 106.401-34.5898 106.401-37.0713 105.7-39.0264 104.296-40.4551 102.892-41.8838 100.875-42.5981 98.2427-42.5981 95.9618-42.5981 94.0255-41.9966 92.4338-40.7935 90.8422-39.5903 89.6328-37.8107 88.8057-35.4546L83.5796-35.4546 83.5796-42.8613C86.8381-44.1898 89.8396-45.136 92.5842-45.7 95.3289-46.2639 97.7664-46.5459 99.897-46.5459Z" fill-rule="evenodd" transform="matrix(1 0 0 1.00019 3292.73 465.562)"/><text fill="#000000" fill-opacity="0" font-family="Arial,Arial_MSFontService,sans-serif" font-size="47.3355" x="2.14307" y="-5.12738">𝑚2</text><path d="M20.625-60.75C22.3333-60.75 23.7917-60.5208 25-60.0625 25.8333-59.7292 26.6667-59.1771 27.5-58.4063 28.3333-57.6354 29.0729-56.5625 29.7188-55.1875 30.3646-53.8125 30.9271-52.2708 31.4063-50.5625 31.8854-48.8542 32.4167-46.3958 33-43.1875 34-37.8125 34.9688-32.1563 35.9063-26.2188 36.8438-20.2812 37.6458-14.7708 38.3125-9.6875 42.3542-15.5208 45.7813-21.2292 48.5938-26.8125 51.4063-32.3958 53.4271-37.25 54.6563-41.375 55.8854-45.5 56.5-48.8542 56.5-51.4375 56.5-53.3958 56.0833-54.7292 55.25-55.4375 54.4167-56.1458 53-56.5625 51-56.6875L51.625-59.75 68.0625-59.75 69.75-56.625C66.5833-47.9583 62.2917-38.6875 56.875-28.8125 51.5417-19.1458 45.4375-9.52083 38.5625 0.0625006 31.9792 9.1875 26.5 15.7917 22.125 19.875 19.0833 22.6667 16.1458 24.6667 13.3125 25.875 11.0625 26.7917 8.66667 27.25 6.125 27.25 5.25 27.25 4.23958 27.1771 3.09375 27.0313 1.94792 26.8854 1.0625 26.6875 0.437501 26.4375L3.125 14.3125 8.0625 14.3125C8.0625 16.9792 8.97917 18.3125 10.8125 18.3125 13.2292 18.3125 16.0417 16.8021 19.25 13.7813 22.4583 10.7604 26.2292 6.20833 30.5625 0.125 29.3542-7.16667 27.7083-15.9583 25.625-26.25 23.4167-37.25 21.9583-44.0625 21.25-46.6875 20.375-49.8542 19.4583-51.875 18.5-52.75 17.9167-53.2917 17.1875-53.5625 16.3125-53.5625 14.9792-53.5625 13.7292-53.0208 12.5625-51.9375 11.3958-50.8542 9.95833-48.9792 8.25-46.3125L4.1875-49C7.0625-53.2917 9.75-56.3229 12.25-58.0938 14.75-59.8646 17.5417-60.75 20.625-60.75Z" fill-rule="evenodd" transform="matrix(1 0 0 1.00019 3000.16 1570.93)"/><text fill="#000000" fill-opacity="0" font-family="Arial,Arial_MSFontService,sans-serif" font-size="88" x="0.437501" y="16.25">𝑦</text><path d="M32.0142-41.8682C30.228-41.8682 28.5706-41.4822 27.0418-40.7102 25.5129-39.9382 24.1128-38.8787 22.8413-37.5315 21.5698-36.1843 20.4346-34.6252 19.4355-32.8543 18.4365-31.0833 17.5964-29.1912 16.9153-27.178 16.2341-25.1648 15.7195-23.1062 15.3713-21.0022 15.0232-18.8982 14.8491-16.8472 14.8491-14.8491 14.8491-11.5796 15.3108-9.15015 16.2341-7.56079 17.1575-5.97144 18.6484-5.17676 20.707-5.17676 22.1299-5.17676 23.6814-5.6687 25.3616-6.65259 27.0418-7.63648 28.6765-9.02149 30.2659-10.8076 31.8552-12.5938 33.3008-14.7507 34.6025-17.2786 35.9043-19.8064 36.8882-22.6143 37.5542-25.7022 37.9478-27.3369 38.2808-28.9792 38.5532-30.6292 38.8257-32.2791 38.9619-33.77 38.9619-35.1021 38.9619-37.5542 38.4094-39.2949 37.3044-40.3242 36.1995-41.3535 34.436-41.8682 32.0142-41.8682ZM31.1968-46.3638C33.4976-46.3638 35.5637-46.0837 37.3953-45.5237 39.2268-44.9636 40.9146-44.1992 42.4585-43.2305L46.7725-46.3638 50.4507-45.4102C48.4526-36.4189 46.4773-27.5186 44.5247-18.709 42.572-9.89942 40.7481-1.60449 39.0527 6.17578 38.4775 8.26465 38.1899 9.95996 38.1899 11.2617 38.1899 12.3818 38.6138 13.1765 39.4614 13.6458 40.3091 14.115 41.7622 14.4404 43.8208 14.6221L43.1851 17.6191 27.6094 17.6191C28.8809 12.6543 30.0691 8.04517 31.1741 3.79175 32.2791-0.46167 33.4824-5.0708 34.7842-10.0356L34.0576-10.2173C32.5439-8.24951 31.0681-6.56934 29.6301-5.17676 28.1921-3.78418 26.7844-2.64136 25.407-1.74829 24.0295-0.855225 22.6521-0.204346 21.2747 0.204346 19.8972 0.613037 18.5122 0.817383 17.1196 0.817383 13.5171 0.817383 10.7319-0.476807 8.76416-3.06519 6.79639-5.65356 5.8125-9.41504 5.8125-14.3496 5.8125-17.2861 6.1228-20.1091 6.74341-22.8186 7.36402-25.5281 8.24195-28.071 9.3772-30.4475 10.5125-32.824 11.8672-34.9885 13.4414-36.9412 15.0156-38.8938 16.7412-40.5664 18.6182-41.959 20.4951-43.3516 22.4932-44.4338 24.6123-45.2058 26.7314-45.9778 28.9263-46.3638 31.1968-46.3638Z" fill-rule="evenodd" transform="matrix(1 0 0 1.00019 3060.58 1597.06)"/><text fill="#000000" fill-opacity="0" font-family="Arial,Arial_MSFontService,sans-serif" font-size="63.9829" x="5.8125" y="9.62128">𝑞</text><path d="M15.1895-39.5527C17.1947-39.5527 18.755-38.901 19.8704-37.5977 20.9858-36.2943 21.5435-34.5522 21.5435-32.3716 21.5435-31.4692 21.4557-30.6672 21.2803-29.9653L21.769-29.7773C24.1502-33.0358 26.5565-35.4797 28.9878-37.1089 31.4191-38.7381 33.9507-39.5527 36.5825-39.5527 42.0968-39.5527 44.854-36.8708 44.854-31.5068L44.854-30.7925C44.854-30.5418 44.8289-30.2912 44.7788-30.0405L45.1548-30.0405C47.536-33.299 49.9172-35.699 52.2984-37.2405 54.6795-38.782 57.186-39.5527 59.8179-39.5527 62.7004-39.5527 64.8309-38.8133 66.2095-37.3345 67.5881-35.8556 68.2774-33.7502 68.2774-31.0181 68.2774-29.5894 67.9264-27.3335 67.2246-24.2505L64.6304-13.5728C64.0539-11.2166 63.7155-9.74406 63.6152-9.15503 63.515-8.566 63.4649-7.98324 63.4649-7.40674 63.4649-5.62712 64.292-4.73731 65.9463-4.73731 66.974-4.73731 68.0079-5.13835 69.0481-5.94043 70.0883-6.74251 71.3604-7.93311 72.8643-9.51221L75.6841-6.76758C73.0523-4.13574 70.7588-2.21826 68.8037-1.01514 66.8486 0.187989 64.8058 0.789551 62.6753 0.789551 60.62 0.789551 58.9406 0.081462 57.6372-1.33472 56.3338-2.7509 55.6821-4.52425 55.6821-6.65479 55.6821-8.96078 56.1584-11.7806 57.1108-15.1143L58.9531-22.0698C59.8304-25.3283 60.2691-27.9225 60.2691-29.8525 60.2691-32.6849 59.0785-34.1011 56.6973-34.1011 55.1683-34.1011 53.7271-33.6499 52.3735-32.7476 51.02-31.8452 49.6352-30.592 48.219-28.9878 46.8028-27.3836 45.6812-25.7795 44.854-24.1753 44.0269-22.5711 43.4002-20.8291 42.9741-18.9492L38.876 0 30.7925 0 35.9434-22.0322C36.7705-25.5163 37.1841-28.1231 37.1841-29.8525 37.1841-32.6849 35.9308-34.1011 33.4243-34.1011 31.8703-34.1011 30.3726-33.6186 28.9314-32.6536 27.4902-31.6886 26.0677-30.3977 24.6641-28.781 23.2604-27.1643 22.1576-25.5789 21.3555-24.0249 20.5534-22.4709 19.9769-20.779 19.626-18.9492L15.6782 0 7.51953 0 13.3848-25.04C14.0365-27.8473 14.3623-29.9403 14.3623-31.3189 14.3623-33.0985 13.5477-33.9883 11.9185-33.9883 10.8908-33.9883 9.85059-33.5872 8.79785-32.7852 7.74512-31.9831 6.47933-30.805 5.00049-29.251L2.14307-31.958C4.7749-34.5898 7.06836-36.5136 9.02344-37.7293 10.9785-38.9449 13.0339-39.5527 15.1895-39.5527ZM99.9722-46.5459C102.529-46.5459 104.891-46.2013 107.059-45.512 109.227-44.8227 110.969-43.7261 112.285-42.2222 113.601-40.7183 114.259-38.8384 114.259-36.5825 114.259-34.6024 113.814-32.8854 112.925-31.4316 112.035-29.9779 110.813-28.7183 109.259-27.6531 107.705-26.5878 105.7-25.5413 103.243-24.5137L103.243-23.9873C106.878-23.4108 109.785-22.1074 111.966-20.0772 114.146-18.0469 115.237-15.578 115.237-12.6704 115.237-10.1138 114.573-7.83285 113.244-5.82764 111.916-3.82243 109.885-2.23079 107.153-1.05273 104.421 0.125326 101.113 0.714356 97.2276 0.714356 94.721 0.714356 92.2772 0.495036 89.896 0.0563965 87.5148-0.382243 85.3216-0.977539 83.3164-1.72949L83.3164-9.77539 88.3169-9.77539C89.0689-7.41927 90.1717-5.71484 91.6255-4.66211 93.0793-3.60938 95.0093-3.08301 97.4155-3.08301 100.599-3.08301 103.005-3.8099 104.634-5.26367 106.264-6.71745 107.078-8.89811 107.078-11.8057 107.078-14.8887 105.994-17.2323 103.826-18.8364 101.658-20.4406 98.4432-21.2427 94.1821-21.2427L90.8735-21.2427 90.8735-25.1152C94.3075-25.2406 97.1837-25.7732 99.5022-26.7131 101.821-27.6531 103.5-28.8625 104.54-30.3413 105.581-31.8202 106.101-33.512 106.101-35.417 106.101-37.6478 105.424-39.4023 104.07-40.6807 102.717-41.959 100.749-42.5981 98.1675-42.5981 95.9367-42.5981 94.038-41.9966 92.4714-40.7935 90.9049-39.5903 89.6955-37.7982 88.8433-35.417L83.8428-35.3794 83.8428-42.9365C89.7331-45.3428 95.1096-46.5459 99.9722-46.5459Z" fill-rule="evenodd" transform="matrix(1 0 0 1.00019 3115.21 1616.13)"/><text fill="#000000" fill-opacity="0" font-family="Arial,Arial_MSFontService,sans-serif" font-size="47.3355" x="2.14307" y="-5.12738">𝑚3</text><path d="M20.625-60.75C22.3333-60.75 23.7917-60.5208 25-60.0625 25.8333-59.7292 26.6667-59.1771 27.5-58.4063 28.3333-57.6354 29.0729-56.5625 29.7188-55.1875 30.3646-53.8125 30.9271-52.2708 31.4063-50.5625 31.8854-48.8542 32.4167-46.3958 33-43.1875 34-37.8125 34.9688-32.1563 35.9063-26.2188 36.8438-20.2812 37.6458-14.7708 38.3125-9.6875 42.3542-15.5208 45.7813-21.2292 48.5938-26.8125 51.4063-32.3958 53.4271-37.25 54.6563-41.375 55.8854-45.5 56.5-48.8542 56.5-51.4375 56.5-53.3958 56.0833-54.7292 55.25-55.4375 54.4167-56.1458 53-56.5625 51-56.6875L51.625-59.75 68.0625-59.75 69.75-56.625C66.5833-47.9583 62.2917-38.6875 56.875-28.8125 51.5417-19.1458 45.4375-9.52083 38.5625 0.0625006 31.9792 9.1875 26.5 15.7917 22.125 19.875 19.0833 22.6667 16.1458 24.6667 13.3125 25.875 11.0625 26.7917 8.66667 27.25 6.125 27.25 5.25 27.25 4.23958 27.1771 3.09375 27.0313 1.94792 26.8854 1.0625 26.6875 0.437501 26.4375L3.125 14.3125 8.0625 14.3125C8.0625 16.9792 8.97917 18.3125 10.8125 18.3125 13.2292 18.3125 16.0417 16.8021 19.25 13.7813 22.4583 10.7604 26.2292 6.20833 30.5625 0.125 29.3542-7.16667 27.7083-15.9583 25.625-26.25 23.4167-37.25 21.9583-44.0625 21.25-46.6875 20.375-49.8542 19.4583-51.875 18.5-52.75 17.9167-53.2917 17.1875-53.5625 16.3125-53.5625 14.9792-53.5625 13.7292-53.0208 12.5625-51.9375 11.3958-50.8542 9.95833-48.9792 8.25-46.3125L4.1875-49C7.0625-53.2917 9.75-56.3229 12.25-58.0938 14.75-59.8646 17.5417-60.75 20.625-60.75Z" fill-rule="evenodd" transform="matrix(1 0 0 1.00019 2074.74 1420.71)"/><text fill="#000000" fill-opacity="0" font-family="Arial,Arial_MSFontService,sans-serif" font-size="88" x="0.437501" y="16.25">𝑦</text><path d="M32.0142-41.8682C30.228-41.8682 28.5706-41.4822 27.0418-40.7102 25.5129-39.9382 24.1128-38.8787 22.8413-37.5315 21.5698-36.1843 20.4346-34.6252 19.4355-32.8543 18.4365-31.0833 17.5964-29.1912 16.9153-27.178 16.2341-25.1648 15.7195-23.1062 15.3713-21.0022 15.0232-18.8982 14.8491-16.8472 14.8491-14.8491 14.8491-11.5796 15.3108-9.15015 16.2341-7.56079 17.1575-5.97144 18.6484-5.17676 20.707-5.17676 22.1299-5.17676 23.6814-5.6687 25.3616-6.65259 27.0418-7.63648 28.6765-9.02149 30.2659-10.8076 31.8552-12.5938 33.3008-14.7507 34.6025-17.2786 35.9043-19.8064 36.8882-22.6143 37.5542-25.7022 37.9478-27.3369 38.2808-28.9792 38.5532-30.6292 38.8257-32.2791 38.9619-33.77 38.9619-35.1021 38.9619-37.5542 38.4094-39.2949 37.3044-40.3242 36.1995-41.3535 34.436-41.8682 32.0142-41.8682ZM31.1968-46.3638C33.4976-46.3638 35.5637-46.0837 37.3953-45.5237 39.2268-44.9636 40.9146-44.1992 42.4585-43.2305L46.7725-46.3638 50.4507-45.4102C48.4526-36.4189 46.4773-27.5186 44.5247-18.709 42.572-9.89942 40.7481-1.60449 39.0527 6.17578 38.4775 8.26465 38.1899 9.95996 38.1899 11.2617 38.1899 12.3818 38.6138 13.1765 39.4614 13.6458 40.3091 14.115 41.7622 14.4404 43.8208 14.6221L43.1851 17.6191 27.6094 17.6191C28.8809 12.6543 30.0691 8.04517 31.1741 3.79175 32.2791-0.46167 33.4824-5.0708 34.7842-10.0356L34.0576-10.2173C32.5439-8.24951 31.0681-6.56934 29.6301-5.17676 28.1921-3.78418 26.7844-2.64136 25.407-1.74829 24.0295-0.855225 22.6521-0.204346 21.2747 0.204346 19.8972 0.613037 18.5122 0.817383 17.1196 0.817383 13.5171 0.817383 10.7319-0.476807 8.76416-3.06519 6.79639-5.65356 5.8125-9.41504 5.8125-14.3496 5.8125-17.2861 6.1228-20.1091 6.74341-22.8186 7.36402-25.5281 8.24195-28.071 9.3772-30.4475 10.5125-32.824 11.8672-34.9885 13.4414-36.9412 15.0156-38.8938 16.7412-40.5664 18.6182-41.959 20.4951-43.3516 22.4932-44.4338 24.6123-45.2058 26.7314-45.9778 28.9263-46.3638 31.1968-46.3638Z" fill-rule="evenodd" transform="matrix(1 0 0 1.00019 2135.16 1446.84)"/><text fill="#000000" fill-opacity="0" font-family="Arial,Arial_MSFontService,sans-serif" font-size="63.9829" x="5.8125" y="9.62128">𝑞</text><path d="M101.363-37.0337 87.377-18.0093 87.377-17.5581 101.438-17.5581 101.438-24.1001C101.438-25.7043 101.476-27.816 101.551-30.4353 101.626-33.0546 101.727-35.2541 101.852-37.0337ZM15.1895-39.5527C17.1947-39.5527 18.755-38.901 19.8704-37.5977 20.9858-36.2943 21.5435-34.5522 21.5435-32.3716 21.5435-31.4692 21.4557-30.6672 21.2803-29.9653L21.769-29.7773C24.1502-33.0358 26.5565-35.4797 28.9878-37.1089 31.4191-38.7381 33.9507-39.5527 36.5825-39.5527 42.0968-39.5527 44.854-36.8708 44.854-31.5068L44.854-30.7925C44.854-30.5418 44.8289-30.2912 44.7788-30.0405L45.1548-30.0405C47.536-33.299 49.9172-35.699 52.2983-37.2405 54.6795-38.782 57.186-39.5527 59.8179-39.5527 62.7004-39.5527 64.8309-38.8133 66.2095-37.3345 67.5881-35.8556 68.2774-33.7502 68.2774-31.0181 68.2774-29.5894 67.9264-27.3335 67.2246-24.2505L64.6304-13.5728C64.0539-11.2166 63.7155-9.74406 63.6152-9.15503 63.515-8.566 63.4649-7.98324 63.4649-7.40674 63.4649-5.62712 64.292-4.7373 65.9463-4.7373 66.974-4.7373 68.0079-5.13835 69.0481-5.94043 70.0883-6.74251 71.3604-7.93311 72.8643-9.51221L75.6841-6.76758C73.0523-4.13574 70.7588-2.21826 68.8037-1.01514 66.8486 0.187988 64.8058 0.789551 62.6753 0.789551 60.62 0.789551 58.9406 0.0814615 57.6372-1.33472 56.3338-2.7509 55.6821-4.52425 55.6821-6.65479 55.6821-8.96078 56.1584-11.7806 57.1108-15.1143L58.9531-22.0698C59.8304-25.3283 60.2691-27.9225 60.2691-29.8525 60.2691-32.6849 59.0785-34.1011 56.6973-34.1011 55.1683-34.1011 53.7271-33.6499 52.3735-32.7476 51.02-31.8452 49.6352-30.592 48.219-28.9878 46.8028-27.3836 45.6812-25.7795 44.854-24.1753 44.0269-22.5711 43.4002-20.8291 42.9741-18.9492L38.876 0 30.7925 0 35.9434-22.0322C36.7705-25.5163 37.1841-28.1231 37.1841-29.8525 37.1841-32.6849 35.9308-34.1011 33.4243-34.1011 31.8703-34.1011 30.3726-33.6186 28.9314-32.6536 27.4902-31.6886 26.0677-30.3977 24.6641-28.781 23.2604-27.1643 22.1576-25.5789 21.3555-24.0249 20.5534-22.4709 19.9769-20.779 19.626-18.9492L15.6782 0 7.51953 0 13.3848-25.04C14.0365-27.8473 14.3623-29.9403 14.3623-31.3189 14.3623-33.0985 13.5477-33.9883 11.9185-33.9883 10.8908-33.9883 9.85059-33.5872 8.79785-32.7852 7.74512-31.9831 6.47933-30.805 5.00049-29.251L2.14307-31.958C4.7749-34.5898 7.06836-36.5136 9.02344-37.7293 10.9785-38.9449 13.0339-39.5527 15.1895-39.5527ZM102.416-45.9443 108.77-45.9443 108.77-17.5581 109.447-17.5581C110.876-17.5581 111.909-17.6772 112.549-17.9153 113.188-18.1534 113.72-18.567 114.146-19.156 114.573-19.745 114.936-20.6411 115.237-21.8442L118.733-21.8442 118.207-13.3848 108.77-13.3848 108.77-9.17383C108.77-7.19369 108.902-5.8151 109.165-5.03809 109.428-4.26107 109.873-3.70337 110.5-3.36499 111.126-3.02661 112.154-2.7321 113.583-2.48145L113.583 0 96.626 0 96.626-2.48145C98.2552-2.75716 99.3456-3.08301 99.897-3.45899 100.448-3.83496 100.843-4.39266 101.081-5.13208 101.319-5.8715 101.438-7.21875 101.438-9.17383L101.438-13.3848 80.1958-13.3848 80.1958-16.355Z" fill-rule="evenodd" transform="matrix(1 0 0 1.00019 2189.79 1465.91)"/><text fill="#000000" fill-opacity="0" font-family="Arial,Arial_MSFontService,sans-serif" font-size="46.7339" x="2.14307" y="-5.05219">𝑚4</text><path d="M20.625-60.75C22.3333-60.75 23.7917-60.5208 25-60.0625 25.8333-59.7292 26.6667-59.1771 27.5-58.4063 28.3333-57.6354 29.0729-56.5625 29.7188-55.1875 30.3646-53.8125 30.9271-52.2708 31.4063-50.5625 31.8854-48.8542 32.4167-46.3958 33-43.1875 34-37.8125 34.9688-32.1563 35.9063-26.2188 36.8438-20.2812 37.6458-14.7708 38.3125-9.6875 42.3542-15.5208 45.7813-21.2292 48.5938-26.8125 51.4063-32.3958 53.4271-37.25 54.6563-41.375 55.8854-45.5 56.5-48.8542 56.5-51.4375 56.5-53.3958 56.0833-54.7292 55.25-55.4375 54.4167-56.1458 53-56.5625 51-56.6875L51.625-59.75 68.0625-59.75 69.75-56.625C66.5833-47.9583 62.2917-38.6875 56.875-28.8125 51.5417-19.1458 45.4375-9.52083 38.5625 0.0625006 31.9792 9.1875 26.5 15.7917 22.125 19.875 19.0833 22.6667 16.1458 24.6667 13.3125 25.875 11.0625 26.7917 8.66667 27.25 6.125 27.25 5.25 27.25 4.23958 27.1771 3.09375 27.0313 1.94792 26.8854 1.0625 26.6875 0.437501 26.4375L3.125 14.3125 8.0625 14.3125C8.0625 16.9792 8.97917 18.3125 10.8125 18.3125 13.2292 18.3125 16.0417 16.8021 19.25 13.7813 22.4583 10.7604 26.2292 6.20833 30.5625 0.125 29.3542-7.16667 27.7083-15.9583 25.625-26.25 23.4167-37.25 21.9583-44.0625 21.25-46.6875 20.375-49.8542 19.4583-51.875 18.5-52.75 17.9167-53.2917 17.1875-53.5625 16.3125-53.5625 14.9792-53.5625 13.7292-53.0208 12.5625-51.9375 11.3958-50.8542 9.95833-48.9792 8.25-46.3125L4.1875-49C7.0625-53.2917 9.75-56.3229 12.25-58.0938 14.75-59.8646 17.5417-60.75 20.625-60.75Z" fill-rule="evenodd" transform="matrix(1 0 0 1.00019 2551.45 781.284)"/><text fill="#000000" fill-opacity="0" font-family="Arial,Arial_MSFontService,sans-serif" font-size="88" x="0.437501" y="16.25">𝑦</text><path d="M21.7969-45.9097 24.022-45.9097 17.3013-15.6665C16.8774-13.8804 16.5823-12.4575 16.4158-11.398 16.2493-10.3384 16.166-9.38477 16.166-8.53711 16.166-7.38672 16.4006-6.5542 16.8699-6.03955 17.3391-5.5249 18.043-5.26758 18.9814-5.26758 19.5264-5.26758 20.0713-5.37354 20.6162-5.58545 21.1611-5.79736 21.7439-6.13037 22.3645-6.58447 22.9851-7.03857 23.6663-7.62134 24.408-8.33276 25.1497-9.04419 25.9746-9.89942 26.8828-10.8984L29.9707-7.90137C28.3965-6.29688 26.9661-4.94214 25.6794-3.83716 24.3928-2.73218 23.1743-1.83154 22.0239-1.13525 20.8735-0.438965 19.7459 0.0605469 18.6409 0.363281 17.5359 0.666016 16.3628 0.817383 15.1216 0.817383 13.9712 0.817383 12.9343 0.605469 12.011 0.181641 11.0876-0.242188 10.293-0.824951 9.62695-1.56665 8.96094-2.30835 8.44629-3.19385 8.08301-4.22315 7.71973-5.25244 7.53809-6.3877 7.53809-7.62891 7.53809-8.62793 7.65918-9.86914 7.90137-11.3525 8.14356-12.8359 8.45386-14.448 8.83228-16.1887 9.21069-17.9294 9.62695-19.7534 10.0811-21.6606 10.5352-23.5679 10.9817-25.46 11.4207-27.3369 11.8596-29.2139 12.2532-31.0227 12.6013-32.7634 12.9495-34.5042 13.1992-36.0859 13.3506-37.5088 13.4111-37.751 13.4414-37.9856 13.4414-38.2127 13.4414-38.4397 13.4414-38.644 13.4414-38.8257 13.3809-40.0064 12.9646-40.8691 12.1926-41.4141 11.4207-41.959 10.0508-42.2617 8.08301-42.3223L8.62793-45.4102ZM19.1631-64.21 28.2451-64.21 26.02-54.4468 17.0288-54.4468Z" fill-rule="evenodd" transform="matrix(1 0 0 1.00019 2619.23 807.418)"/><text fill="#000000" fill-opacity="0" font-family="Arial,Arial_MSFontService,sans-serif" font-size="65.0274" x="7.53809" y="-7.31104">𝑖</text><path d="M20.625-60.75C22.3333-60.75 23.7917-60.5208 25-60.0625 25.8333-59.7292 26.6667-59.1771 27.5-58.4063 28.3333-57.6354 29.0729-56.5625 29.7188-55.1875 30.3646-53.8125 30.9271-52.2708 31.4063-50.5625 31.8854-48.8542 32.4167-46.3958 33-43.1875 34-37.8125 34.9688-32.1563 35.9063-26.2188 36.8438-20.2812 37.6458-14.7708 38.3125-9.6875 42.3542-15.5208 45.7813-21.2292 48.5938-26.8125 51.4063-32.3958 53.4271-37.25 54.6563-41.375 55.8854-45.5 56.5-48.8542 56.5-51.4375 56.5-53.3958 56.0833-54.7292 55.25-55.4375 54.4167-56.1458 53-56.5625 51-56.6875L51.625-59.75 68.0625-59.75 69.75-56.625C66.5833-47.9583 62.2917-38.6875 56.875-28.8125 51.5417-19.1458 45.4375-9.52083 38.5625 0.0625006 31.9792 9.1875 26.5 15.7917 22.125 19.875 19.0833 22.6667 16.1458 24.6667 13.3125 25.875 11.0625 26.7917 8.66667 27.25 6.125 27.25 5.25 27.25 4.23958 27.1771 3.09375 27.0313 1.94792 26.8854 1.0625 26.6875 0.437501 26.4375L3.125 14.3125 8.0625 14.3125C8.0625 16.9792 8.97917 18.3125 10.8125 18.3125 13.2292 18.3125 16.0417 16.8021 19.25 13.7813 22.4583 10.7604 26.2292 6.20833 30.5625 0.125 29.3542-7.16667 27.7083-15.9583 25.625-26.25 23.4167-37.25 21.9583-44.0625 21.25-46.6875 20.375-49.8542 19.4583-51.875 18.5-52.75 17.9167-53.2917 17.1875-53.5625 16.3125-53.5625 14.9792-53.5625 13.7292-53.0208 12.5625-51.9375 11.3958-50.8542 9.95833-48.9792 8.25-46.3125L4.1875-49C7.0625-53.2917 9.75-56.3229 12.25-58.0938 14.75-59.8646 17.5417-60.75 20.625-60.75Z" fill-rule="evenodd" transform="matrix(1 0 0 1.00019 2781.63 976.966)"/><text fill="#000000" fill-opacity="0" font-family="Arial,Arial_MSFontService,sans-serif" font-size="88" x="0.437501" y="16.25">𝑦</text><path d="M22.3125-90.125 30.6875-90.125 51.9375-70.4375 48.5625-66.875 26.5-82.0625 25.8125-82.0625 3.375-66.875 7.73929e-07-70.4375Z" fill-rule="evenodd" transform="matrix(1 0 0 1.00019 2798.42 976.966)"/><text fill="#000000" fill-opacity="0" font-family="Arial,Arial_MSFontService,sans-serif" font-size="23.25" y="-69.7813">ො</text><path d="M21.7969-45.9097 24.022-45.9097 17.3013-15.6665C16.8774-13.8804 16.5823-12.4575 16.4158-11.398 16.2493-10.3384 16.166-9.38477 16.166-8.53711 16.166-7.38672 16.4006-6.5542 16.8699-6.03955 17.3391-5.5249 18.043-5.26758 18.9814-5.26758 19.5264-5.26758 20.0713-5.37354 20.6162-5.58545 21.1611-5.79736 21.7439-6.13037 22.3645-6.58447 22.9851-7.03857 23.6663-7.62134 24.408-8.33276 25.1497-9.04419 25.9746-9.89942 26.8828-10.8984L29.9707-7.90137C28.3965-6.29688 26.9661-4.94214 25.6794-3.83716 24.3928-2.73218 23.1743-1.83154 22.0239-1.13525 20.8735-0.438965 19.7459 0.0605469 18.6409 0.363281 17.5359 0.666016 16.3628 0.817383 15.1216 0.817383 13.9712 0.817383 12.9343 0.605469 12.011 0.181641 11.0876-0.242188 10.293-0.824951 9.62695-1.56665 8.96094-2.30835 8.44629-3.19385 8.08301-4.22315 7.71973-5.25244 7.53809-6.3877 7.53809-7.62891 7.53809-8.62793 7.65918-9.86914 7.90137-11.3525 8.14356-12.8359 8.45386-14.448 8.83228-16.1887 9.21069-17.9294 9.62695-19.7534 10.0811-21.6606 10.5352-23.5679 10.9817-25.46 11.4207-27.3369 11.8596-29.2139 12.2532-31.0227 12.6013-32.7634 12.9495-34.5042 13.1992-36.0859 13.3506-37.5088 13.4111-37.751 13.4414-37.9856 13.4414-38.2127 13.4414-38.4397 13.4414-38.644 13.4414-38.8257 13.3809-40.0064 12.9646-40.8691 12.1926-41.4141 11.4207-41.959 10.0508-42.2617 8.08301-42.3223L8.62793-45.4102ZM19.1631-64.21 28.2451-64.21 26.02-54.4468 17.0288-54.4468Z" fill-rule="evenodd" transform="matrix(1 0 0 1.00019 2849.42 1003.1)"/><text fill="#000000" fill-opacity="0" font-family="Arial,Arial_MSFontService,sans-serif" font-size="65.0274" x="7.53809" y="-7.31104">𝑖</text><path d="M6.08496-10.5352 14.0317-10.5352C14.4556-8.41602 14.6675-6.32715 14.6675-4.26855 14.6675-2.14941 14.3042-0.211914 13.5776 1.54395 12.8511 3.29981 11.6931 5.0481 10.1038 6.78882 8.51441 8.52954 6.32715 10.4443 3.54199 12.5332L1.08984 9.76318C2.63379 8.31006 3.75391 7.00073 4.4502 5.83521 5.14649 4.66968 5.646 3.34522 5.94873 1.86182 6.25147 0.378418 6.40283-1.4834 6.40283-3.72363 6.40283-6.02442 6.29688-8.29492 6.08496-10.5352Z" fill-rule="evenodd" transform="matrix(1 0 0 1.00019 2885.44 1003.1)"/><text fill="#000000" fill-opacity="0" font-family="Arial,Arial_MSFontService,sans-serif" font-size="23.0684" x="1.08984" y="9.64966">,</text><path d="M16.5293-46.3638C18.7695-46.3638 20.5027-45.6296 21.7288-44.1614 22.9548-42.6931 23.5679-40.7632 23.5679-38.3716 23.5679-37.7056 23.5225-37.0547 23.4316-36.4189 23.3408-35.7832 23.1743-35.1626 22.9321-34.5571L23.4771-34.3301C26.353-38.3564 29.229-41.3687 32.105-43.3667 34.981-45.3647 37.9326-46.3638 40.96-46.3638 44.1689-46.3638 46.5681-45.5388 48.1575-43.8889 49.7468-42.239 50.5415-39.8096 50.5415-36.6006 50.5415-36.3281 50.5415-36.0632 50.5415-35.8059 50.5415-35.5486 50.5112-35.2837 50.4507-35.0112L50.6323-35.0112C53.4478-38.856 56.2481-41.7092 59.0332-43.571 61.8184-45.4329 64.7246-46.3638 67.752-46.3638 70.9609-46.3638 73.3601-45.501 74.9495-43.7754 76.5388-42.0498 77.3335-39.6279 77.3335-36.5098 77.3335-35.5713 77.1821-34.3074 76.8794-32.718 76.5767-31.1287 76.2058-29.3804 75.7669-27.4731 75.3279-25.5659 74.8511-23.5906 74.3364-21.5471 73.8218-19.5037 73.3374-17.5737 72.8833-15.7573 72.6108-14.5767 72.3914-13.6155 72.2249-12.8738 72.0584-12.1321 71.9297-11.5115 71.8389-11.012 71.7481-10.5125 71.6875-10.0811 71.6572-9.71777 71.627-9.35449 71.6118-8.96094 71.6118-8.53711 71.6118-7.38672 71.8237-6.5542 72.2476-6.03955 72.6714-5.5249 73.3525-5.26758 74.291-5.26758 74.8359-5.26758 75.3809-5.37354 75.9258-5.58545 76.4707-5.79736 77.0535-6.13037 77.6741-6.58447 78.2947-7.03858 78.9758-7.62134 79.7175-8.33276 80.4592-9.04419 81.2842-9.89942 82.1924-10.8984L85.3257-7.90137C83.8726-6.3877 82.5178-5.08594 81.2615-3.99609 80.0051-2.90625 78.7942-2.00562 77.6287-1.29419 76.4631-0.582764 75.3052-0.0529786 74.1548 0.295166 73.0044 0.643311 71.7935 0.817383 70.522 0.817383 69.3716 0.817383 68.3272 0.605469 67.3887 0.18164 66.4502-0.242187 65.6555-0.824951 65.0046-1.56665 64.3538-2.30835 63.8467-3.18628 63.4834-4.20044 63.1201-5.2146 62.9385-6.32715 62.9385-7.53809 62.9385-10.0205 63.4683-13.2144 64.5278-17.1196 65.103-19.0874 65.6253-20.9719 66.0945-22.7732 66.5637-24.5745 66.9649-26.2395 67.2979-27.7683 67.6309-29.2971 67.8958-30.6594 68.0925-31.8552 68.2893-33.051 68.3877-34.0425 68.3877-34.8296 68.3877-36.7065 68.032-38.084 67.3206-38.9619 66.6091-39.8398 65.4966-40.2788 63.9829-40.2788 63.0444-40.2788 62.0454-40.0366 60.9858-39.5522 59.9263-39.0679 58.8591-38.3943 57.7844-37.5315 56.7097-36.6687 55.6577-35.647 54.6284-34.4663 53.5991-33.2856 52.6455-32.0066 51.7676-30.6292 50.8897-29.2517 50.1101-27.8062 49.429-26.2925 48.7478-24.7788 48.2256-23.25 47.8623-21.7061L43.3667 0 34.5117 0C34.9356-1.9375 35.4124-4.0188 35.9421-6.2439 36.4719-8.469 37.0093-10.7168 37.5542-12.9873 38.0991-15.2578 38.6213-17.498 39.1209-19.708 39.6204-21.918 40.0669-23.9841 40.4605-25.9065 40.854-27.8289 41.1719-29.5544 41.4141-31.0833 41.6563-32.6121 41.7773-33.8306 41.7773-34.7388 41.7773-36.646 41.4065-38.0461 40.6648-38.9392 39.9231-39.8323 38.7349-40.2788 37.1001-40.2788 35.647-40.2788 34.0879-39.7339 32.4229-38.644 30.7578-37.5542 29.176-36.1238 27.6775-34.3528 26.179-32.5818 24.8394-30.5837 23.6587-28.3586 22.478-26.1335 21.6455-23.8857 21.1611-21.6152L16.5293 0 7.62891 0 14.4404-29.6074C14.834-31.2422 15.1216-32.665 15.3032-33.876 15.4849-35.0869 15.5757-36.0859 15.5757-36.8731 15.5757-39.083 14.6826-40.188 12.8965-40.188 12.3516-40.188 11.7991-40.0745 11.239-39.8474 10.679-39.6204 10.0886-39.2798 9.46802-38.8257 8.84741-38.3716 8.17383-37.7964 7.44727-37.1001 6.72071-36.4038 5.90332-35.5864 4.99512-34.648L1.86182-37.5996C3.34522-39.1133 4.71509-40.4226 5.97144-41.5276 7.22779-42.6326 8.43872-43.5408 9.60425-44.2522 10.7698-44.9636 11.9126-45.4934 13.0327-45.8416 14.1528-46.1897 15.3184-46.3638 16.5293-46.3638Z" fill-rule="evenodd" transform="matrix(1 0 0 1.00019 2904.61 1003.1)"/><text fill="#000000" fill-opacity="0" font-family="Arial,Arial_MSFontService,sans-serif" font-size="47.1812" x="1.86182" y="-5.08026">𝑚</text><path d="M40.1875-55.875C35.9792-55.875 31.9271-53.75 28.0313-49.5 24.1354-45.25 21.1458-39.5 19.0625-32.25 24.9375-32.2917 29.9792-32.8229 34.1875-33.8438 38.3958-34.8646 41.625-36.4896 43.875-38.7188 46.125-40.9479 47.25-43.9583 47.25-47.75 47.25-50.2917 46.6563-52.2813 45.4688-53.7188 44.2813-55.1563 42.5208-55.875 40.1875-55.875ZM42.4375-60.8125C47.4792-60.8125 51.2604-59.7917 53.7813-57.75 56.3021-55.7083 57.5625-52.5208 57.5625-48.1875 57.5625-41.1042 54.2396-35.7917 47.5938-32.25 40.9479-28.7083 31.0833-26.9375 18-26.9375 17.5-24.4375 17.25-21.7292 17.25-18.8125 17.25-14.4375 18.1042-11.2604 19.8125-9.28125 21.5208-7.30208 24.3125-6.3125 28.1875-6.3125 32.0208-6.3125 35.4896-7.14583 38.5938-8.8125 41.6979-10.4792 44.9792-13.0417 48.4375-16.5L52.3125-12.4375C48.2708-7.97917 44.1771-4.625 40.0313-2.375 35.8854-0.125 31.0625 1 25.5625 1 19.5208 1 14.8438-0.84375 11.5313-4.53125 8.21875-8.21875 6.5625-13.3542 6.5625-19.9375 6.5625-24.3958 7.36458-29.1771 8.96875-34.2813 10.5729-39.3854 13-43.9688 16.25-48.0313 19.5-52.0938 23.3958-55.2396 27.9375-57.4688 32.4792-59.6979 37.3125-60.8125 42.4375-60.8125Z" fill-rule="evenodd" transform="matrix(1 0 0 1.00019 2584.76 1046.08)"/><text fill="#000000" fill-opacity="0" font-family="Arial,Arial_MSFontService,sans-serif" font-size="61.8125" x="6.5625" y="-6.72656">𝑒</text><path d="M16.5293-46.3638C18.7695-46.3638 20.5027-45.6296 21.7288-44.1614 22.9548-42.6931 23.5679-40.7632 23.5679-38.3716 23.5679-37.7056 23.5225-37.0547 23.4316-36.4189 23.3408-35.7832 23.1743-35.1626 22.9321-34.5571L23.4771-34.3301C26.353-38.3564 29.229-41.3687 32.105-43.3667 34.981-45.3647 37.9326-46.3638 40.96-46.3638 44.1689-46.3638 46.5681-45.5388 48.1575-43.8889 49.7468-42.239 50.5415-39.8096 50.5415-36.6006 50.5415-36.3281 50.5415-36.0632 50.5415-35.8059 50.5415-35.5486 50.5112-35.2837 50.4507-35.0112L50.6323-35.0112C53.4478-38.856 56.2481-41.7092 59.0332-43.571 61.8184-45.4329 64.7246-46.3638 67.752-46.3638 70.9609-46.3638 73.3601-45.501 74.9495-43.7754 76.5388-42.0498 77.3335-39.6279 77.3335-36.5098 77.3335-35.5713 77.1821-34.3074 76.8794-32.718 76.5767-31.1287 76.2058-29.3804 75.7669-27.4731 75.3279-25.5659 74.8511-23.5906 74.3364-21.5471 73.8218-19.5037 73.3374-17.5737 72.8833-15.7573 72.6108-14.5767 72.3914-13.6155 72.2249-12.8738 72.0584-12.1321 71.9297-11.5115 71.8389-11.012 71.7481-10.5125 71.6875-10.0811 71.6572-9.71777 71.627-9.35449 71.6118-8.96094 71.6118-8.53711 71.6118-7.38672 71.8237-6.5542 72.2476-6.03955 72.6714-5.5249 73.3525-5.26758 74.291-5.26758 74.8359-5.26758 75.3809-5.37354 75.9258-5.58545 76.4707-5.79736 77.0535-6.13037 77.6741-6.58447 78.2947-7.03858 78.9758-7.62134 79.7175-8.33276 80.4592-9.04419 81.2842-9.89942 82.1924-10.8984L85.3257-7.90137C83.8726-6.3877 82.5178-5.08594 81.2615-3.99609 80.0051-2.90625 78.7942-2.00562 77.6287-1.29419 76.4631-0.582764 75.3052-0.0529786 74.1548 0.295166 73.0044 0.643311 71.7935 0.817383 70.522 0.817383 69.3716 0.817383 68.3272 0.605469 67.3887 0.18164 66.4502-0.242187 65.6555-0.824951 65.0046-1.56665 64.3538-2.30835 63.8467-3.18628 63.4834-4.20044 63.1201-5.2146 62.9385-6.32715 62.9385-7.53809 62.9385-10.0205 63.4683-13.2144 64.5278-17.1196 65.103-19.0874 65.6253-20.9719 66.0945-22.7732 66.5637-24.5745 66.9649-26.2395 67.2979-27.7683 67.6309-29.2971 67.8958-30.6594 68.0925-31.8552 68.2893-33.051 68.3877-34.0425 68.3877-34.8296 68.3877-36.7065 68.032-38.084 67.3206-38.9619 66.6091-39.8398 65.4966-40.2788 63.9829-40.2788 63.0444-40.2788 62.0454-40.0366 60.9858-39.5522 59.9263-39.0679 58.8591-38.3943 57.7844-37.5315 56.7097-36.6687 55.6577-35.647 54.6284-34.4663 53.5991-33.2856 52.6455-32.0066 51.7676-30.6292 50.8897-29.2517 50.1101-27.8062 49.429-26.2925 48.7478-24.7788 48.2256-23.25 47.8623-21.7061L43.3667 0 34.5117 0C34.9356-1.9375 35.4124-4.0188 35.9421-6.2439 36.4719-8.469 37.0093-10.7168 37.5542-12.9873 38.0991-15.2578 38.6213-17.498 39.1209-19.708 39.6204-21.918 40.0669-23.9841 40.4605-25.9065 40.854-27.8289 41.1719-29.5544 41.4141-31.0833 41.6563-32.6121 41.7773-33.8306 41.7773-34.7388 41.7773-36.646 41.4065-38.0461 40.6648-38.9392 39.9231-39.8323 38.7349-40.2788 37.1001-40.2788 35.647-40.2788 34.0879-39.7339 32.4229-38.644 30.7578-37.5542 29.176-36.1238 27.6775-34.3528 26.179-32.5818 24.8394-30.5837 23.6587-28.3586 22.478-26.1335 21.6455-23.8857 21.1611-21.6152L16.5293 0 7.62891 0 14.4404-29.6074C14.834-31.2422 15.1216-32.665 15.3032-33.876 15.4849-35.0869 15.5757-36.0859 15.5757-36.8731 15.5757-39.083 14.6826-40.188 12.8965-40.188 12.3516-40.188 11.7991-40.0745 11.239-39.8474 10.679-39.6204 10.0886-39.2798 9.46802-38.8257 8.84741-38.3716 8.17383-37.7964 7.44727-37.1001 6.72071-36.4038 5.90332-35.5864 4.99512-34.648L1.86182-37.5996C3.34522-39.1133 4.71509-40.4226 5.97144-41.5276 7.22779-42.6326 8.43872-43.5408 9.60425-44.2522 10.7698-44.9636 11.9126-45.4934 13.0327-45.8416 14.1528-46.1897 15.3184-46.3638 16.5293-46.3638Z" fill-rule="evenodd" transform="matrix(1 0 0 1.00019 2644.51 1072.22)"/><text fill="#000000" fill-opacity="0" font-family="Arial,Arial_MSFontService,sans-serif" font-size="47.1812" x="1.86182" y="-5.08026">𝑚</text></g></svg>